<svg width="120" height="82" viewBox="0 0 120 82" fill="none" xmlns="http://www.w3.org/2000/svg">
<path d="M0.277832 14.876C17.0766 22.3877 37.5132 26.8303 60.0072 26.8303C81.9448 26.8303 103.148 22.0529 119.722 14.876C112.996 43.2968 104.4 81.4474 60.0072 81.4474C18.8 81.4474 6.82197 43.5763 0.277832 14.876Z" fill="#505166"/>
<ellipse cx="60" cy="13.6905" rx="60" ry="13.6905" fill="#373852"/>
<path d="M59.9993 4.30469C90.4848 4.30469 115.199 10.4446 115.199 18.0186C115.199 18.4038 115.133 18.7849 115.008 19.1621C105.751 23.998 84.606 27.3808 60.0002 27.3809C35.3927 27.3809 14.246 23.9985 4.9895 19.1621C4.86426 18.7851 4.80005 18.4036 4.80005 18.0186C4.80096 10.4446 29.5139 4.30475 59.9993 4.30469Z" fill="#AADFEF"/>
</svg>
