<svg width="90" height="111" viewBox="0 0 90 111" fill="none" xmlns="http://www.w3.org/2000/svg">
<path d="M45 20.2433C69.8528 20.2433 90 40.3905 90 65.2433C90 90.0961 69.8528 110.243 45 110.243C20.1472 110.243 2.0619e-06 90.0961 0 65.2433C0 40.3905 20.1472 20.2433 45 20.2433Z" fill="#E36B5B"/>
<path d="M36.4868 37.2704C36.4868 40.6289 33.7642 43.3515 30.4057 43.3515C27.0472 43.3515 24.3246 40.6289 24.3246 37.2704C24.3246 33.9119 27.0472 31.1893 30.4057 31.1893C33.7642 31.1893 36.4868 33.9119 36.4868 37.2704Z" fill="#FFD8D8"/>
<path d="M82.6085 0.502978C83.3673 0.454156 84.0548 0.986971 84.1827 1.75298C84.3189 2.57013 83.7665 3.34335 82.9493 3.47954L81.6046 3.7188C74.9007 4.98289 68.5529 7.32522 64.3038 11.5743C60.7447 15.1335 58.2528 20.3613 56.5772 25.879C55.0603 30.8744 54.248 35.9912 53.8888 40.0694C58.3831 41.274 61.9126 40.2713 65.4249 39.6758C66.2417 39.5374 67.0169 40.0876 67.1554 40.9043C67.2938 41.7211 66.7435 42.4953 65.9269 42.6338C62.5351 43.2088 58.0213 44.4969 52.3663 42.754L51.8155 42.5752C47.7143 41.1847 45.0758 39.5033 43.2853 37.7696C41.7155 36.2496 40.86 34.7458 40.255 33.5625L40.0099 33.0762L39.9483 32.9356C39.6788 32.2247 39.9861 31.4108 40.6808 31.0635C41.3754 30.7162 42.2113 30.9585 42.6183 31.6006L42.6935 31.7344L42.922 32.1875C43.4698 33.2582 44.1409 34.4221 45.3722 35.6143C46.5404 36.7454 48.2693 37.9512 50.9698 39.0586C51.3741 34.9483 52.2106 29.9362 53.7071 25.0079C55.4483 19.2741 58.1252 13.5108 62.1827 9.45317C67.38 4.25584 75.0549 1.75413 82.4562 0.520556L82.6085 0.502978Z" fill="#7A5A43"/>
</svg>
