<svg width="130" height="74" viewBox="0 0 130 74" fill="none" xmlns="http://www.w3.org/2000/svg">
<path d="M29.1942 59.4856C31.2866 59.8886 32.659 61.9263 32.2596 64.0369L30.9724 70.8382C30.5729 72.9488 28.5529 74.3332 26.4604 73.9303L3.13448 69.4382C1.04207 69.0353 -0.330333 66.9976 0.0691317 64.8869L1.35632 58.0857C1.75579 55.975 3.77585 54.5906 5.86827 54.9936L29.1942 59.4856Z" fill="#7A5A43"/>
<path d="M1.15161 65.0953L0.0691317 64.8869L1.35632 58.0857L2.43878 58.2942L1.15161 65.0953ZM3.34114 68.3463L26.6671 72.8383C28.1617 73.1261 29.6046 72.1373 29.8899 70.6296L31.1771 63.8285C31.4624 62.3209 30.4821 60.8654 28.9876 60.5775L5.66161 56.0855C4.16704 55.7977 2.72412 56.7865 2.43878 58.2942L1.35632 58.0857L1.39873 57.8905C1.86663 55.9549 3.71647 54.6872 5.67275 54.9614L5.86827 54.9936L29.1942 59.4856C31.2214 59.876 32.5724 61.8007 32.2914 63.8397L32.2596 64.0369L30.9724 70.8382L30.9298 71.0344C30.446 73.0339 28.4873 74.3206 26.4604 73.9303L3.13448 69.4382L2.94078 69.3965C1.02219 68.9246 -0.234327 67.0582 0.0370911 65.0851L0.0691317 64.8869L1.15161 65.0953C0.866278 66.6029 1.84658 68.0584 3.34114 68.3463Z" fill="#C5AC6B"/>
<path d="M98.3809 48.8522C100.506 49.0019 102.108 50.8609 101.96 53.0045L101.482 59.9117C101.334 62.0553 99.4907 63.6717 97.3656 63.522L73.676 61.8537C71.551 61.7041 69.9486 59.845 70.097 57.7015L70.575 50.7942C70.7234 48.6506 72.5663 47.0342 74.6914 47.1839L98.3809 48.8522Z" fill="#F5F0E4"/>
<path d="M71.1963 57.7788L70.097 57.7015L70.575 50.7942L71.6744 50.8717L71.1963 57.7788ZM73.7528 60.7448L97.4424 62.4131C98.9603 62.52 100.277 61.3654 100.383 59.8343L100.861 52.9271C100.967 51.396 99.8221 50.0681 98.3042 49.9612L74.6146 48.2929C73.0967 48.186 71.7803 49.3406 71.6744 50.8717L70.575 50.7942L70.5942 50.5954C70.8311 48.6174 72.5187 47.1372 74.4934 47.1754L74.6914 47.1839L98.3809 48.8522C100.44 48.9972 102.008 50.7467 101.968 52.8049L101.96 53.0045L101.482 59.9117L101.463 60.1117C101.218 62.155 99.4241 63.667 97.3656 63.522L73.676 61.8537L73.4788 61.8355C71.5183 61.5966 70.0511 59.8938 70.0885 57.9021L70.097 57.7015L71.1963 57.7788C71.0903 59.31 72.2349 60.6379 73.7528 60.7448Z" fill="#C5AC6B"/>
<path d="M128.707 58.0831C130.298 59.5116 130.44 61.9709 129.024 63.5761L124.461 68.7484C123.044 70.3536 120.606 70.4967 119.015 69.0682L101.276 53.1427C99.6847 51.7141 99.5427 49.2548 100.959 47.6497L105.522 42.4774C106.939 40.8722 109.377 40.7291 110.968 42.1576L128.707 58.0831Z" fill="#F5F0E4"/>
<path d="M101.782 48.3887L100.959 47.6497L105.522 42.4774L106.346 43.2165L101.782 48.3887ZM102.009 52.3123L119.748 68.2377C120.884 69.2581 122.626 69.1559 123.638 68.0093L128.201 62.8371C129.212 61.6905 129.111 59.9339 127.974 58.9135L110.235 42.988C109.099 41.9676 107.357 42.0699 106.346 43.2165L105.522 42.4774L105.658 42.3318C107.044 40.9123 109.277 40.7812 110.816 42.0289L110.968 42.1576L128.707 58.0831C130.249 59.4671 130.43 61.8184 129.152 63.4233L129.024 63.5761L124.461 68.7484L124.324 68.8948C122.892 70.3609 120.557 70.452 119.015 69.0682L101.276 53.1427L101.131 53.0067C99.7239 51.6088 99.5943 49.3566 100.831 47.8033L100.959 47.6497L101.782 48.3887C100.771 49.5352 100.872 51.2919 102.009 52.3123Z" fill="#C5AC6B"/>
<path d="M57.0298 41.5103C59.1548 41.6599 60.7572 43.519 60.6089 45.6625L60.1308 52.5698C59.9824 54.7134 58.1395 56.3298 56.0145 56.1801L32.3249 54.5118C30.1999 54.3621 28.5975 52.5031 28.7458 50.3595L29.2239 43.4523C29.3722 41.3087 31.2152 39.6923 33.3402 39.842L57.0298 41.5103Z" fill="#F5F0E4"/>
<path d="M29.8452 50.4369L28.7458 50.3595L29.2239 43.4523L30.3232 43.5297L29.8452 50.4369ZM32.4016 53.4028L56.0912 55.0711C57.6091 55.178 58.9255 54.0235 59.0315 52.4923L59.5095 45.5852C59.6155 44.054 58.4709 42.7261 56.953 42.6192L33.2634 40.9509C31.7456 40.844 30.4292 41.9986 30.3232 43.5297L29.2239 43.4523L29.243 43.2534C29.4799 41.2755 31.1676 39.7953 33.1423 39.8335L33.3402 39.842L57.0298 41.5103C59.0886 41.6553 60.6564 43.4047 60.6173 45.4629L60.6089 45.6625L60.1308 52.5698L60.1116 52.7697C59.8664 54.813 58.0729 56.3251 56.0145 56.1801L32.3249 54.5118L32.1276 54.4935C30.1671 54.2546 28.6999 52.5518 28.7373 50.5602L28.7458 50.3595L29.8452 50.4369C29.7392 51.968 30.8838 53.2959 32.4016 53.4028Z" fill="#C5AC6B"/>
<path d="M71.1249 13.746C73.1463 13.0681 75.3298 14.1716 76.0018 16.2106L78.1673 22.7811C78.8394 24.8201 77.7455 27.0227 75.7241 27.7006L53.1896 35.2578C51.1681 35.9357 48.9847 34.8323 48.3126 32.7932L46.1471 26.2228C45.4751 24.1837 46.5689 21.9812 48.5904 21.3033L71.1249 13.746Z" fill="#F5F0E4"/>
<path d="M49.3584 32.4425L48.3126 32.7932L46.1471 26.2228L47.1929 25.8721L49.3584 32.4425ZM52.8419 34.2029L75.3764 26.6457C76.8203 26.1615 77.6016 24.5882 77.1216 23.1317L74.9561 16.5614C74.476 15.1049 72.9164 14.3167 71.4725 14.8009L48.938 22.3582C47.4942 22.8424 46.7128 24.4156 47.1929 25.8721L46.1471 26.2228L46.0898 26.0316C45.5621 24.1116 46.5638 22.0947 48.4042 21.3714L48.5904 21.3033L71.1249 13.746C73.0833 13.0893 75.1934 14.1046 75.9342 16.0228L76.0018 16.2106L78.1673 22.7811L78.225 22.9733C78.7697 24.9568 77.6822 27.0439 75.7241 27.7006L53.1896 35.2578L53.0003 35.3167C51.0973 35.8489 49.0978 34.838 48.3805 32.9821L48.3126 32.7932L49.3584 32.4425C49.8384 33.899 51.398 34.6871 52.8419 34.2029Z" fill="#C5AC6B"/>
<path d="M87.7595 30.7158C89.7234 29.8835 91.9843 30.8148 92.8095 32.7958L95.4682 39.1794C96.2933 41.1604 95.3701 43.4411 93.4062 44.2734L71.5127 53.5519C69.5488 54.3842 67.2879 53.453 66.4628 51.4719L63.804 45.0884C62.9789 43.1073 63.9021 40.8266 65.866 39.9943L87.7595 30.7158Z" fill="#F5F0E4"/>
<path d="M67.4787 51.0413L66.4628 51.4719L63.804 45.0884L64.82 44.6578L67.4787 51.0413ZM71.0859 52.527L92.9793 43.2485C94.3821 42.654 95.0415 41.0249 94.4522 39.6099L91.7935 33.2264C91.2041 31.8114 89.5891 31.1462 88.1863 31.7407L66.2929 41.0192C64.8901 41.6137 64.2307 43.2428 64.82 44.6578L63.804 45.0884L63.7323 44.9022C63.0602 43.0287 63.9056 40.9402 65.6855 40.0767L65.866 39.9943L87.7595 30.7158C89.6622 29.9095 91.8433 30.7586 92.7278 32.6138L92.8095 32.7958L95.4682 39.1794L95.5403 39.3666C96.2342 41.3021 95.3086 43.4672 93.4062 44.2734L71.5127 53.5519L71.3285 53.6253C69.4715 54.3031 67.4011 53.4499 66.5448 51.6549L66.4628 51.4719L67.4787 51.0413C68.0681 52.4563 69.6831 53.1215 71.0859 52.527Z" fill="#C5AC6B"/>
<path d="M86.1619 59.1421C88.287 59.2918 89.8894 61.1508 89.741 63.2944L89.263 70.2016C89.1146 72.3452 87.2716 73.9616 85.1466 73.812L61.457 72.1436C59.332 71.994 57.7296 70.135 57.878 67.9914L58.356 61.0841C58.5044 58.9406 60.3473 57.3242 62.4724 57.4738L86.1619 59.1421Z" fill="#F5F0E4"/>
<path d="M58.9773 68.0687L57.878 67.9914L58.356 61.0841L59.4554 61.1616L58.9773 68.0687ZM61.5338 71.0347L85.2234 72.703C86.7413 72.8099 88.0576 71.6553 88.1636 70.1242L88.6417 63.217C88.7476 61.6859 87.6031 60.358 86.0852 60.2511L62.3956 58.5828C60.8777 58.4759 59.5613 59.6305 59.4554 61.1616L58.356 61.0841L58.3752 60.8853C58.6121 58.9073 60.2997 57.4271 62.2744 57.4653L62.4724 57.4738L86.1619 59.1421C88.2207 59.2871 89.7885 61.0366 89.7494 63.0948L89.741 63.2944L89.263 70.2016L89.2437 70.4016C88.9985 72.4449 87.2051 73.9569 85.1466 73.812L61.457 72.1436L61.2598 72.1254C59.2992 71.8865 57.8321 70.1837 57.8695 68.1921L57.878 67.9914L58.9773 68.0687C58.8713 69.5999 60.0159 70.9278 61.5338 71.0347Z" fill="#C5AC6B"/>
<path d="M74.5091 44.4489C76.6341 44.5986 78.2365 46.4576 78.0881 48.6012L77.6101 55.5084C77.4617 57.652 75.6188 59.2684 73.4938 59.1187L49.8042 57.4504C47.6791 57.3008 46.0767 55.4417 46.2251 53.2982L46.7032 46.3909C46.8515 44.2473 48.6945 42.6309 50.8195 42.7806L74.5091 44.4489Z" fill="#F5F0E4"/>
<path d="M47.3244 53.3755L46.2251 53.2982L46.7032 46.3909L47.8025 46.4684L47.3244 53.3755ZM49.8809 56.3415L73.5705 58.0098C75.0884 58.1167 76.4048 56.9621 76.5107 55.431L76.9888 48.5238C77.0948 46.9927 75.9502 45.6648 74.4323 45.5579L50.7427 43.8895C49.2249 43.7827 47.9085 44.9372 47.8025 46.4684L46.7032 46.3909L46.7223 46.1921C46.9592 44.2141 48.6469 42.7339 50.6216 42.7721L50.8195 42.7806L74.5091 44.4489C76.5678 44.5939 78.1357 46.3434 78.0966 48.4016L78.0881 48.6012L77.6101 55.5084L77.5909 55.7083C77.3457 57.7517 75.5522 59.2637 73.4938 59.1187L49.8042 57.4504L49.6069 57.4322C47.6464 57.1933 46.1792 55.4905 46.2166 53.4988L46.2251 53.2982L47.3244 53.3755C47.2185 54.9067 48.3631 56.2346 49.8809 56.3415Z" fill="#C5AC6B"/>
<path d="M115.025 50.5334C116.87 51.6062 117.504 53.9851 116.441 55.847L113.014 61.8465C111.951 63.7083 109.592 64.348 107.747 63.2753L87.1703 51.3164C85.3246 50.2436 84.6904 47.8647 85.7539 46.0028L89.1807 40.0033C90.2442 38.1415 92.6026 37.5018 94.4483 38.5745L115.025 50.5334Z" fill="#F5F0E4"/>
<path d="M86.7088 46.5577L85.7539 46.0028L89.1807 40.0033L90.1355 40.5583L86.7088 46.5577ZM87.7205 50.3532L108.297 62.3121C109.615 63.0783 111.3 62.6214 112.059 61.2915L115.486 55.2921C116.246 53.9622 115.793 52.2629 114.474 51.4966L93.8981 39.5377C92.5797 38.7715 90.8952 39.2284 90.1355 40.5583L89.1807 40.0033L89.2842 39.833C90.3554 38.1591 92.5151 37.5733 94.274 38.4795L94.4483 38.5745L115.025 50.5334C116.813 51.5727 117.463 53.8379 116.535 55.6713L116.441 55.847L113.014 61.8465L112.91 62.0177C111.803 63.7467 109.534 64.3144 107.747 63.2753L87.1703 51.3164L87.0009 51.2129C85.3418 50.1325 84.7614 47.9537 85.6592 46.1795L85.7539 46.0028L86.7088 46.5577C85.9492 47.8876 86.4021 49.5869 87.7205 50.3532Z" fill="#C5AC6B"/>
<path d="M118.207 59.1421C120.332 59.2918 121.935 61.1508 121.786 63.2944L121.308 70.2016C121.16 72.3452 119.317 73.9616 117.192 73.812L93.5024 72.1436C91.3774 71.994 89.775 70.135 89.9233 67.9914L90.4014 61.0841C90.5497 58.9406 92.3927 57.3242 94.5177 57.4738L118.207 59.1421Z" fill="#F5F0E4"/>
<path d="M91.0227 68.0687L89.9233 67.9914L90.4014 61.0841L91.5007 61.1616L91.0227 68.0687ZM93.5792 71.0347L117.269 72.703C118.787 72.8099 120.103 71.6553 120.209 70.1242L120.687 63.217C120.793 61.6859 119.648 60.358 118.131 60.2511L94.441 58.5828C92.9231 58.4759 91.6067 59.6305 91.5007 61.1616L90.4014 61.0841L90.4205 60.8853C90.6574 58.9073 92.3451 57.4271 94.3198 57.4653L94.5177 57.4738L118.207 59.1421C120.266 59.2871 121.834 61.0366 121.795 63.0948L121.786 63.2944L121.308 70.2016L121.289 70.4016C121.044 72.4449 119.25 73.9569 117.192 73.812L93.5024 72.1436L93.3052 72.1254C91.3446 71.8865 89.8774 70.1837 89.9148 68.1921L89.9233 67.9914L91.0227 68.0687C90.9167 69.5999 92.0613 70.9278 93.5792 71.0347Z" fill="#C5AC6B"/>
<path d="M45.2957 49.3535C47.3407 48.7518 49.482 49.9363 50.0784 51.9992L52.0004 58.6463C52.5969 60.7091 51.4226 62.8691 49.3776 63.4708L26.5803 70.1781C24.5353 70.7798 22.394 69.5952 21.7975 67.5324L19.8755 60.8853C19.2791 58.8224 20.4533 56.6624 22.4983 56.0608L45.2957 49.3535Z" fill="#F5F0E4"/>
<path d="M22.8554 67.2211L21.7975 67.5324L19.8755 60.8853L20.9335 60.5741L22.8554 67.2211ZM26.2717 69.1109L49.069 62.4036C50.5297 61.9738 51.3685 60.4309 50.9425 58.9575L49.0205 52.3105C48.5945 50.837 47.0649 49.9909 45.6042 50.4207L22.8069 57.128C21.3462 57.5577 20.5074 59.1006 20.9335 60.5741L19.8755 60.8853L19.8253 60.6921C19.3687 58.7537 20.444 56.7757 22.3097 56.1219L22.4983 56.0608L45.2957 49.3535C47.2769 48.7706 49.3482 49.8643 50.0178 51.809L50.0784 51.9992L52.0004 58.6463L52.051 58.8405C52.5222 60.8431 51.3585 62.888 49.3776 63.4708L26.5803 70.1781L26.389 70.2298C24.4676 70.6903 22.5068 69.6052 21.8584 67.7236L21.7975 67.5324L22.8554 67.2211C23.2815 68.6946 24.811 69.5406 26.2717 69.1109Z" fill="#C5AC6B"/>
<path d="M41.1363 23.7818C43.0124 22.764 45.3512 23.4731 46.3602 25.3656L49.6114 31.4637C50.6204 33.3562 49.9174 35.7154 48.0413 36.7332L27.1268 48.0792C25.2507 49.097 22.9119 48.3879 21.903 46.4954L18.6518 40.3973C17.6428 38.5048 18.3457 36.1456 20.2218 35.1278L41.1363 23.7818Z" fill="#F5F0E4"/>
<path d="M22.8735 45.9689L21.903 46.4954L18.6518 40.3973L19.6223 39.8708L22.8735 45.9689ZM26.6049 47.1002L47.5194 35.7541C48.8594 35.0271 49.3615 33.3419 48.6408 31.9902L45.3897 25.8921C44.669 24.5404 42.9984 24.0339 41.6583 24.7608L20.7438 36.1069C19.4038 36.8339 18.9017 38.5191 19.6223 39.8708L18.6518 40.3973L18.5627 40.2189C17.7163 38.4188 18.36 36.2583 20.05 35.2272L20.2218 35.1278L41.1363 23.7818C42.9539 22.7957 45.2055 23.4308 46.2617 25.1923L46.3602 25.3656L49.6114 31.4637L49.701 31.6431C50.575 33.5029 49.8587 35.7473 48.0413 36.7332L27.1268 48.0792L26.9504 48.17C25.1661 49.0237 23.0244 48.3739 22.002 46.6697L21.903 46.4954L22.8735 45.9689C23.5942 47.3206 25.2648 47.8271 26.6049 47.1002Z" fill="#C5AC6B"/>
<path d="M26.5703 38.475C28.4464 37.4572 30.7852 38.1663 31.7941 40.0588L35.0453 46.1569C36.0543 48.0494 35.3514 50.4086 33.4753 51.4264L12.5608 62.7724C10.6847 63.7902 8.34586 63.0811 7.33689 61.1886L4.08569 55.0905C3.07672 53.1981 3.77966 50.8388 5.65576 49.8211L26.5703 38.475Z" fill="#F5F0E4"/>
<path d="M8.30743 60.6621L7.33689 61.1886L4.08569 55.0905L5.05627 54.5641L8.30743 60.6621ZM12.0388 61.7934L32.9533 50.4473C34.2934 49.7203 34.7955 48.0352 34.0748 46.6834L30.8236 40.5854C30.1029 39.2336 28.4323 38.7271 27.0922 39.4541L6.17774 50.8001C4.83769 51.5271 4.33558 53.2123 5.05627 54.5641L4.08569 55.0905L3.99666 54.9121C3.1502 53.112 3.79391 50.9516 5.48391 49.9205L5.65576 49.8211L26.5703 38.475C28.3879 37.489 30.6395 38.124 31.6956 39.8855L31.7941 40.0588L35.0453 46.1569L35.1349 46.3363C36.0089 48.1961 35.2926 50.4405 33.4753 51.4264L12.5608 62.7724L12.3843 62.8632C10.6001 63.7169 8.45828 63.0671 7.43591 61.3629L7.33689 61.1886L8.30743 60.6621C9.02813 62.0139 10.6987 62.5203 12.0388 61.7934Z" fill="#C5AC6B"/>
<path d="M58.0904 8.52385C60.1466 7.96239 62.2647 9.18866 62.8213 11.2628L64.6148 17.9463C65.1714 20.0205 63.9558 22.1571 61.8996 22.7185L38.9773 28.9776C36.9211 29.5391 34.803 28.3128 34.2464 26.2387L32.4529 19.5551C31.8963 17.481 33.1119 15.3444 35.1681 14.7829L58.0904 8.52385Z" fill="#E36B5B"/>
<path d="M35.3101 25.9481L34.2464 26.2387L32.4529 19.5551L33.5166 19.2647L35.3101 25.9481ZM38.6893 27.9046L61.6116 21.6455C63.0803 21.2444 63.9486 19.7183 63.5511 18.2367L61.7576 11.5533C61.36 10.0718 59.8471 9.19584 58.3783 9.59688L35.4561 15.856C33.9874 16.257 33.119 17.7832 33.5166 19.2647L32.4529 19.5551L32.4063 19.361C31.9872 17.414 33.1004 15.4574 34.9784 14.8404L35.1681 14.7829L58.0904 8.52385C60.0825 7.97989 62.1323 9.11407 62.7644 11.0715L62.8213 11.2628L64.6148 17.9463L64.6616 18.1416C65.0942 20.153 63.8914 22.1746 61.8996 22.7185L38.9773 28.9776L38.785 29.0256C36.8552 29.4483 34.9156 28.3249 34.3036 26.431L34.2464 26.2387L35.3101 25.9481C35.7077 27.4297 37.2206 28.3056 38.6893 27.9046Z" fill="#C5AC6B"/>
<path d="M70.6282 0.824241C72.3072 -0.498176 74.7311 -0.197209 76.042 1.49647L80.2664 6.95399C81.5774 8.64767 81.279 11.0927 79.6 12.4151L60.8825 27.1573C59.2034 28.4797 56.7796 28.1787 55.4686 26.485L51.2443 21.0275C49.9333 19.3338 50.2316 16.8888 51.9107 15.5664L70.6282 0.824241Z" fill="#F5F0E4"/>
<path d="M56.3372 25.8009L55.4686 26.485L51.2443 21.0275L52.1129 20.3434L56.3372 25.8009ZM60.2042 26.2811L78.9218 11.5389C80.1211 10.5943 80.3342 8.84786 79.3977 7.63808L75.1735 2.18063C74.237 0.970848 72.5057 0.755862 71.3064 1.70044L52.5889 16.4426C51.3896 17.3872 51.1765 19.1336 52.1129 20.3434L51.2443 21.0275L51.1267 20.8668C49.9913 19.2365 50.2645 16.9975 51.7579 15.6936L51.9107 15.5664L70.6282 0.824241C72.2549 -0.456943 74.5804 -0.214128 75.916 1.3424L76.042 1.49647L80.2664 6.95399L80.3846 7.11559C81.5571 8.80005 81.2264 11.1341 79.6 12.4151L60.8825 27.1573L60.7237 27.2768C59.1078 28.4218 56.888 28.1458 55.5953 26.6399L55.4686 26.485L56.3372 25.8009C57.2736 27.0106 59.005 27.2256 60.2042 26.2811Z" fill="#C5AC6B"/>
<path d="M68.6826 32.6943C70.8077 32.844 72.4101 34.703 72.2617 36.8466L71.7837 43.7539C71.6353 45.8974 69.7924 47.5138 67.6673 47.3642L43.9777 45.6958C41.8527 45.5462 40.2503 43.6872 40.3987 41.5436L40.8767 34.6363C41.0251 32.4928 42.868 30.8764 44.9931 31.026L68.6826 32.6943Z" fill="#F5F0E4"/>
<path d="M41.498 41.621L40.3987 41.5436L40.8767 34.6363L41.9761 34.7138L41.498 41.621ZM44.0545 44.5869L67.7441 46.2552C69.262 46.3621 70.5783 45.2075 70.6843 43.6764L71.1624 36.7692C71.2683 35.2381 70.1238 33.9102 68.6059 33.8033L44.9163 32.135C43.3984 32.0281 42.082 33.1827 41.9761 34.7138L40.8767 34.6363L40.8959 34.4375C41.1328 32.4595 42.8204 30.9794 44.7951 31.0175L44.9931 31.026L68.6826 32.6943C70.7414 32.8393 72.3093 34.5888 72.2701 36.647L72.2617 36.8466L71.7837 43.7539L71.7644 43.9538C71.5192 45.9971 69.7258 47.5091 67.6673 47.3642L43.9777 45.6958L43.7805 45.6776C41.82 45.4387 40.3528 43.7359 40.3902 41.7443L40.3987 41.5436L41.498 41.621C41.392 43.1521 42.5366 44.48 44.0545 44.5869Z" fill="#C5AC6B"/>
<path d="M81.5829 25.7592C83.6577 25.2723 85.731 26.5742 86.2136 28.6671L87.769 35.4111C88.2517 37.504 86.961 39.5953 84.8862 40.0822L61.7566 45.5101C59.6818 45.9969 57.6086 44.695 57.1259 42.6021L55.5705 35.8581C55.0879 33.7652 56.3785 31.6739 58.4533 31.187L81.5829 25.7592Z" fill="#77A974"/>
<path d="M58.1992 42.3502L57.1259 42.6021L55.5705 35.8581L56.6439 35.6063L58.1992 42.3502ZM61.5069 44.4273L84.6365 38.9995C86.1185 38.6517 87.0404 37.1579 86.6956 35.6629L85.1403 28.9191C84.7955 27.4241 83.3146 26.4941 81.8326 26.8419L58.703 32.2697C57.2211 32.6175 56.2991 34.1114 56.6439 35.6063L55.5705 35.8581L55.5309 35.6624C55.1811 33.7015 56.363 31.7864 58.2617 31.2375L58.4533 31.187L81.5829 25.7592C83.593 25.2875 85.6013 26.4949 86.1635 28.4739L86.2136 28.6671L87.769 35.4111L87.8088 35.6079C88.1697 37.6337 86.896 39.6106 84.8862 40.0822L61.7566 45.5101L61.5628 45.5511C59.6192 45.9039 57.7207 44.7112 57.1762 42.7964L57.1259 42.6021L58.1992 42.3502C58.544 43.8451 60.0249 44.7751 61.5069 44.4273Z" fill="#C5AC6B"/>
<path d="M111.709 30.7215C113.731 31.3993 114.825 33.6017 114.153 35.6408L111.988 42.2115C111.316 44.2506 109.133 45.3542 107.111 44.6765L84.576 37.121C82.5546 36.4433 81.4605 34.2408 82.1324 32.2017L84.2974 25.6311C84.9693 23.592 87.1526 22.4884 89.1741 23.1661L111.709 30.7215Z" fill="#F5F0E4"/>
<path d="M83.1782 32.5523L82.1324 32.2017L84.2974 25.6311L85.3431 25.9818L83.1782 32.5523ZM84.9236 36.0661L107.459 43.6215C108.903 44.1056 110.462 43.3173 110.942 41.8608L113.107 35.2903C113.587 33.8337 112.806 32.2606 111.362 31.7764L88.8265 24.221C87.3826 23.737 85.823 24.5253 85.3431 25.9818L84.2974 25.6311L84.3649 25.4433C85.0818 23.5868 87.0811 22.5762 88.9845 23.1083L89.1741 23.1661L111.709 30.7215C113.668 31.3781 114.755 33.4658 114.21 35.4496L114.153 35.6408L111.988 42.2115L111.92 42.4003C111.179 44.318 109.069 45.333 107.111 44.6765L84.576 37.121L84.3895 37.0539C82.5493 36.3309 81.5477 34.3137 82.0747 32.394L82.1324 32.2017L83.1782 32.5523C82.6982 34.0088 83.4797 35.582 84.9236 36.0661Z" fill="#C5AC6B"/>
<path d="M97.8148 15.0625C99.9398 15.2121 101.542 17.0712 101.394 19.2147L100.916 26.122C100.767 28.2656 98.9245 29.882 96.7995 29.7323L73.1099 28.064C70.9849 27.9143 69.3825 26.0553 69.5308 23.9117L70.0089 17.0045C70.1572 14.8609 72.0002 13.2445 74.1252 13.3942L97.8148 15.0625Z" fill="#F5F0E4"/>
<path d="M70.6302 23.9891L69.5308 23.9117L70.0089 17.0045L71.1082 17.082L70.6302 23.9891ZM73.1867 26.955L96.8762 28.6234C98.3941 28.7303 99.7105 27.5757 99.8165 26.0445L100.295 19.1374C100.4 17.6062 99.2559 16.2783 97.738 16.1714L74.0485 14.5031C72.5306 14.3962 71.2142 15.5508 71.1082 17.082L70.0089 17.0045L70.028 16.8056C70.2649 14.8277 71.9526 13.3475 73.9273 13.3857L74.1252 13.3942L97.8148 15.0625C99.8736 15.2075 101.441 16.9569 101.402 19.0152L101.394 19.2147L100.916 26.122L100.897 26.3219C100.651 28.3652 98.858 29.8773 96.7995 29.7323L73.1099 28.064L72.9127 28.0457C70.9521 27.8068 69.4849 26.104 69.5223 24.1124L69.5308 23.9117L70.6302 23.9891C70.5242 25.5202 71.6688 26.8481 73.1867 26.955Z" fill="#C5AC6B"/>
<path d="M64.1002 59.1925C66.1926 59.5955 67.565 61.6332 67.1655 63.7439L65.8783 70.5451C65.4789 72.6558 63.4588 74.0401 61.3664 73.6372L38.0404 69.1451C35.948 68.7422 34.5756 66.7045 34.9751 64.5938L36.2623 57.7926C36.6617 55.6819 38.6818 54.2975 40.7742 54.7005L64.1002 59.1925Z" fill="#7A5A43"/>
<path d="M36.0576 64.8022L34.9751 64.5938L36.2623 57.7926L37.3447 58.0011L36.0576 64.8022ZM38.2471 68.0532L61.5731 72.5453C63.0676 72.8331 64.5105 71.8442 64.7959 70.3366L66.0831 63.5354C66.3684 62.0278 65.3881 60.5723 63.8935 60.2845L40.5676 55.7924C39.073 55.5046 37.6301 56.4935 37.3447 58.0011L36.2623 57.7926L36.3047 57.5975C36.7726 55.6618 38.6224 54.3941 40.5787 54.6684L40.7742 54.7005L64.1002 59.1925C66.1274 59.5829 67.4783 61.5077 67.1974 63.5467L67.1655 63.7439L65.8783 70.5451L65.8357 70.7413C65.3519 72.7408 63.3933 74.0275 61.3664 73.6372L38.0404 69.1451L37.8467 69.1034C35.9281 68.6315 34.6716 66.7651 34.943 64.7921L34.9751 64.5938L36.0576 64.8022C35.7722 66.3099 36.7525 67.7654 38.2471 68.0532Z" fill="#C5AC6B"/>
</svg>
