<svg width="80" height="80" viewBox="0 0 80 80" fill="none" xmlns="http://www.w3.org/2000/svg">
<circle cx="40" cy="40" r="40" fill="#505166"/>
<path d="M40.4624 43.5806L40.4483 43.8283C40.3059 45.0481 39.1228 46 37.6846 46C36.2465 46 35.0633 45.0481 34.921 43.8283L34.9068 43.5806V18.4194C34.9068 17.0832 36.1505 16 37.6846 16C39.2187 16 40.4624 17.0832 40.4624 18.4194V43.5806Z" fill="#F5F0E4"/>
<path d="M39.087 45.9861L38.8741 46.0724C37.7939 46.432 36.4879 45.7457 35.8666 44.4486C35.2454 43.1516 35.5291 41.7038 36.4863 41.0875L36.687 40.9757L57.6983 30.9111C58.8141 30.3766 60.2559 31.065 60.9186 32.4486C61.5814 33.8321 61.2141 35.387 60.0983 35.9215L39.087 45.9861Z" fill="#F5F0E4"/>
</svg>
