<svg width="80" height="80" viewBox="0 0 80 80" fill="none" xmlns="http://www.w3.org/2000/svg">
<circle cx="40" cy="40" r="40" fill="#C5AC6B"/>
<path d="M37.2954 36.6077C37.4593 35.7883 38.7703 34.1495 40.7369 34.1495C42.7035 34.1495 44.1784 36.116 44.1784 36.6077" stroke="#F5F0E4" stroke-width="2" stroke-linecap="round"/>
<path d="M34.3457 32.1829C34.5096 31.3635 36.8039 28.2498 41.2287 28.2498C44.6702 28.2498 47.1284 31.6912 47.1284 32.1829" stroke="#F5F0E4" stroke-width="2" stroke-linecap="round"/>
<path d="M28.9375 30.7079C29.1014 29.8885 33.8539 23.3333 40.7369 23.3333C47.6199 23.3333 52.0447 30.2163 52.0447 30.7079" stroke="#F5F0E4" stroke-width="2" stroke-linecap="round"/>
<path d="M20.5801 47.4238C20.744 46.6044 22.055 44.9656 24.0216 44.9656C25.9881 44.9656 27.4631 46.9321 27.4631 47.4238" stroke="#F5F0E4" stroke-width="2" stroke-linecap="round"/>
<path d="M17.6304 42.999C17.7943 42.1796 20.0886 39.0659 24.5134 39.0659C27.9549 39.0659 30.4131 42.5074 30.4131 42.999" stroke="#F5F0E4" stroke-width="2" stroke-linecap="round"/>
<path d="M12.2222 41.5241C12.386 40.7047 17.1386 34.1495 24.0216 34.1495C30.9046 34.1495 35.3293 41.0325 35.3293 41.5241" stroke="#F5F0E4" stroke-width="2" stroke-linecap="round"/>
<path d="M37.2954 57.2566C37.4593 56.4372 38.7703 54.7984 40.7369 54.7984C42.7035 54.7984 44.1784 56.765 44.1784 57.2566" stroke="#F5F0E4" stroke-width="2" stroke-linecap="round"/>
<path d="M34.3457 52.8319C34.5096 52.0125 36.8039 48.8987 41.2287 48.8987C44.6702 48.8987 47.1284 52.3402 47.1284 52.8319" stroke="#F5F0E4" stroke-width="2" stroke-linecap="round"/>
<path d="M28.9375 51.357C29.1014 50.5376 33.8539 43.9824 40.7369 43.9824C47.6199 43.9824 52.0447 50.8654 52.0447 51.357" stroke="#F5F0E4" stroke-width="2" stroke-linecap="round"/>
<path d="M53.0288 47.4238C53.1927 46.6044 54.5037 44.9656 56.4703 44.9656C58.4369 44.9656 59.9118 46.9321 59.9118 47.4238" stroke="#F5F0E4" stroke-width="2" stroke-linecap="round"/>
<path d="M50.0786 42.999C50.2425 42.1796 52.5368 39.0659 56.9616 39.0659C60.4031 39.0659 62.8613 42.5074 62.8613 42.999" stroke="#F5F0E4" stroke-width="2" stroke-linecap="round"/>
<path d="M44.6704 41.5241C44.8343 40.7047 49.5868 34.1495 56.4698 34.1495C63.3528 34.1495 67.7776 41.0325 67.7776 41.5241" stroke="#F5F0E4" stroke-width="2" stroke-linecap="round"/>
</svg>
