<svg width="117" height="86" viewBox="0 0 117 86" fill="none" xmlns="http://www.w3.org/2000/svg">
<path d="M55.8966 7.913C50.5234 6.36084 41.7691 2.75576 27.9293 4.52519C14.0894 6.29461 5.69238 15.2503 5.69238 15.2503C4.11075 14.8704 1.83917 15.2158 0.87082 17.2924C-0.498631 20.2292 1.50329 22.4736 3.15056 23.7185C2.29276 28.3239 2.86685 40.3187 12.0257 51.4541C21.1846 62.5896 36.6235 69.3598 43.198 71.353C44.4395 73.7196 46.4601 78.2371 49.2338 79.5305C52.7009 81.1473 59.9542 79.0149 63.5147 78.3241C66.2219 77.7988 71.1803 75.4631 72.6099 75.4146C74.0394 75.3662 80.8942 80.2787 86.7823 82.7384C94.1423 85.8129 99.3129 86.7939 102.112 83.8087C104.911 80.8235 103.561 64.1052 105.342 60.2874C107.122 56.4696 118.395 41.3469 116.753 38.0787C115.111 34.8104 106.939 35.0137 101.682 35.6989C95.6899 36.48 89.4744 37.9912 86.0168 39.12C87.3562 34.739 88.9106 27.2406 84.8659 18.2039C81.0628 9.70696 74.5129 1.9351 70.194 0.636257C66.739 -0.40282 59.0758 4.86676 55.8966 7.913Z" fill="#C5AC6B"/>
<path d="M68.8816 6.78384C69.12 6.52417 69.5244 6.50682 69.7841 6.74524C70.0434 6.98352 70.0611 7.38696 69.8232 7.64659L64.5175 13.423C66.6641 14.9532 68.7549 16.7396 70.7347 18.7157L74.5411 15.3405C74.8048 15.1069 75.2089 15.1314 75.4428 15.3951C75.6764 15.6588 75.6519 16.0629 75.3882 16.2968L71.6292 19.6293C73.517 21.6017 75.2944 23.7442 76.9104 25.9972L80.2342 23.884L80.3497 23.8251C80.627 23.7192 80.9501 23.819 81.1158 24.0791C81.3049 24.3765 81.2168 24.7709 80.9195 24.9601L77.6445 27.0424C78.8497 28.8021 79.955 30.6225 80.9375 32.4763L83.7943 30.8042C84.0984 30.6261 84.489 30.7283 84.6672 31.0325C84.8454 31.3366 84.7432 31.7273 84.439 31.9054L81.5235 33.612C83.2229 37.0171 84.4993 40.521 85.2038 43.9557C87.6765 43.7092 92.3361 43.3413 94.9484 43.4981C97.7484 43.6663 102.036 44.2034 103.824 44.4497C104.173 44.4978 104.417 44.8196 104.369 45.1688C104.321 45.518 103.999 45.762 103.65 45.7139C101.866 45.4681 97.6206 44.9375 94.8728 44.7724C92.4038 44.6241 87.921 44.9692 85.434 45.2143C85.7728 47.273 85.8982 49.302 85.7738 51.2643C87.6098 51.3505 90.8609 51.663 93.1026 52.4506C95.5631 53.3151 99.2013 54.7063 100.711 55.293L100.827 55.3523C101.076 55.5131 101.187 55.8318 101.076 56.1191C100.948 56.4477 100.577 56.6107 100.249 56.483L96.8134 55.1714C95.4145 54.6449 93.8991 54.0849 92.6793 53.6563C90.5851 52.9205 87.4285 52.6172 85.6575 52.5374C85.4477 54.2636 85.0345 55.9302 84.3883 57.507L84.2055 57.9403C83.8871 58.6734 83.538 59.3672 83.162 60.0247C84.771 60.5284 87.2246 61.3276 89.0029 62.1568L95.737 65.297L95.8481 65.3625C96.0864 65.5394 96.176 65.8657 96.0457 66.1452C95.9154 66.4247 95.6078 66.5658 95.3191 66.4969L95.1974 66.454L88.4634 63.3138C86.6487 62.4676 84.0595 61.6391 82.4692 61.1446C80.8201 63.6322 78.7524 65.5204 76.4314 66.9511C78.3939 67.7324 81.5724 69.131 84.635 70.8838C87.9976 72.8083 90.5231 74.4696 91.7107 75.3001L92.1356 75.6042L92.2316 75.6903C92.4315 75.9099 92.4563 76.2465 92.2743 76.4956C92.0922 76.7446 91.7639 76.8235 91.494 76.6998L91.3829 76.6343L90.9739 76.3432C89.8252 75.54 87.3347 73.9005 84.001 71.9926C80.4131 69.9391 76.653 68.3778 74.9913 67.7651C72.6746 68.9648 70.161 69.7667 67.5982 70.3068L67.9407 73.4515L67.9425 73.5803C67.9149 73.8759 67.6825 74.1216 67.3759 74.1552C67.0693 74.1885 66.7897 73.9984 66.6991 73.7157L66.6716 73.5888L66.3416 70.5531C64.3846 70.9008 62.4078 71.1091 60.4739 71.2338L61.0717 75.1523L61.0786 75.2821C61.0634 75.5783 60.8419 75.8331 60.5372 75.8797C60.2324 75.9262 59.945 75.7488 59.8422 75.4703L59.8098 75.3452L59.1935 71.3039C57.0301 71.406 54.9327 71.4188 52.9962 71.4169L54.0154 75.6887C54.0968 76.0313 53.8852 76.3753 53.5428 76.4573C53.1999 76.539 52.8547 76.3271 52.773 75.9842L51.6833 71.4154C50.5971 71.4133 49.5746 71.4129 48.6284 71.4297C48.2763 71.4358 47.986 71.1558 47.9794 70.8038C47.9731 70.4514 48.2534 70.16 48.6058 70.1536C49.7124 70.134 50.9193 70.1373 52.19 70.1399L53.9748 70.1414C55.7979 70.1372 57.7289 70.1107 59.704 70.0027L60.5832 69.9491C62.6418 69.8105 64.7315 69.5748 66.7792 69.1752L67.8134 68.9573C70.215 68.4173 72.5327 67.6359 74.6484 66.5062L75.1616 66.2228C77.7101 64.7697 79.9461 62.7806 81.6575 60.0535L82.081 59.3459C82.3548 58.8638 82.6133 58.3595 82.8556 57.8322L83.2072 57.0222C83.7915 55.5962 84.1766 54.0825 84.3782 52.5021L84.4527 51.8202C84.6369 49.8527 84.5486 47.7902 84.219 45.6753L84.0625 44.766C83.4224 41.3393 82.1731 37.8045 80.4638 34.3476L80.1158 33.6572C79.1272 31.7326 77.9994 29.8387 76.7595 28.0081L76.2212 27.2274C74.6461 24.9827 72.9068 22.8436 71.0547 20.8732L70.2538 20.0389C68.2963 18.0419 66.2275 16.2389 64.1077 14.6969L63.1966 14.052C61.7614 13.0658 60.3085 12.2031 58.8559 11.4845L58.2331 11.1859L58.122 11.1203C57.8832 10.9435 57.7939 10.6173 57.9243 10.3376C58.0733 10.0181 58.4531 9.87989 58.7726 10.0289L59.4208 10.3408C60.7775 11.0119 62.128 11.8002 63.4594 12.689L68.8816 6.78384ZM36.4797 17.3342C36.7872 17.3081 37.0627 17.5045 37.1464 17.7895L37.1699 17.916L37.1947 18.2935C37.2933 20.259 36.9861 23.412 36.2354 26.6813C35.5346 29.733 34.4302 32.9637 32.8519 35.4711C35.9004 35.5246 40.1377 35.9687 43.94 36.6841C45.2887 36.9378 46.5921 37.2278 47.7746 37.5492C47.8182 36.4006 47.882 35.0711 47.0107 33.6564L46.5747 32.9483L47.3725 32.7096C48.0148 32.5175 49.058 32.1 50.0496 31.4847C51.0537 30.8617 51.9234 30.0858 52.3316 29.2103C52.6954 28.4303 52.5232 27.3265 52.003 26.1244C51.4972 24.9555 50.7334 23.8593 50.1896 23.2169L49.5325 22.44L50.5173 22.1867C51.2261 22.0038 53.2557 21.1675 55.1926 19.364C55.9316 18.6759 56.0275 17.5376 55.6657 16.1608C55.3121 14.8157 54.5704 13.4635 53.9943 12.6358C53.7931 12.3465 53.865 11.9488 54.1541 11.7474C54.4434 11.5461 54.8416 11.6168 55.043 11.9061C55.6764 12.8161 56.497 14.3055 56.8994 15.8365C57.2935 17.3357 57.3395 19.1088 56.0626 20.2978C54.4836 21.768 52.833 22.6621 51.7256 23.1147C52.224 23.8019 52.769 24.6813 53.1738 25.6167C53.7258 26.8923 54.096 28.4474 53.4886 29.7499C52.9258 30.9568 51.8085 31.8952 50.7229 32.5689C49.9406 33.0543 49.1313 33.4262 48.4643 33.6809C49.214 35.3321 49.0817 36.9454 49.0425 37.9217C49.3014 38.0042 49.552 38.0881 49.7929 38.174C50.6036 38.463 51.3239 38.7774 51.9029 39.118C52.469 39.451 52.9637 39.8465 53.2438 40.3251C54.1984 41.9565 53.8678 44.2201 52.8876 46.5168C51.9521 48.7087 50.3588 51.0962 48.3545 53.3441L47.9479 53.7914C45.3169 56.6399 43.1975 58.1784 40.9541 58.3736C40.0938 58.4484 39.2451 58.3209 38.3752 58.028C38.2243 58.1516 38.0455 58.3032 37.8415 58.4792C37.589 58.6971 37.3032 58.9441 37.0047 59.1853C36.4964 59.596 35.8995 60.0349 35.3161 60.2962L35.0672 60.3961C34.509 60.5955 33.8041 60.7612 33.1908 60.8774C32.5862 60.992 32.0113 61.07 31.7154 61.0767C31.3631 61.0844 31.0705 60.8055 31.0626 60.4531C31.0546 60.1007 31.3348 59.8087 31.6873 59.8008C31.8717 59.7966 32.3591 59.736 32.9529 59.6234C33.5386 59.5124 34.1703 59.3619 34.6384 59.1948L34.8067 59.126C35.2125 58.9425 35.6966 58.6008 36.2023 58.1922C36.4826 57.9657 36.7536 57.7316 37.0075 57.5126C37.0239 57.4985 37.0402 57.4835 37.0565 57.4694C36.3528 57.116 35.6259 56.6716 34.862 56.149L33.8871 55.4578C29.782 52.4558 25.1787 46.7991 23.0833 43.9507C21.5337 44.7943 20.122 45.4267 19.0535 45.864C18.7274 45.9972 18.3542 45.8403 18.2207 45.5142C18.0875 45.188 18.2444 44.8148 18.5706 44.6814C19.7159 44.2127 21.266 43.5161 22.9501 42.5667L23.7194 42.1207C24.4959 41.6569 25.2906 41.1413 26.0786 40.5715L26.8242 40.014C27.5658 39.4406 28.2939 38.8189 28.9868 38.1462L29.5524 37.5764C30.1098 36.9952 30.6391 36.3792 31.1283 35.7279L31.4603 35.2665C33.0883 32.8906 34.255 29.598 34.9905 26.3952C35.7256 23.1936 36.0097 20.1699 35.9207 18.3679L35.8979 18.0244L35.8994 17.8944C35.9342 17.5997 36.1726 17.3603 36.4797 17.3342ZM62.7866 40.4241C62.94 40.0953 63.0076 39.6261 62.975 39.0291C62.9428 38.4402 62.8166 37.7781 62.6322 37.1003C62.2633 35.7439 61.6813 34.3961 61.261 33.5778L60.9576 32.9865L61.5607 32.7079C62.2971 32.3668 63.47 31.7596 64.5748 31.0555C65.7069 30.3339 66.6657 29.573 67.0782 28.9435C67.2209 28.7258 67.2983 28.3872 67.2696 27.9048C67.2412 27.4288 67.1135 26.8758 66.916 26.2942C66.5212 25.1316 65.887 23.9551 65.4258 23.2334L65.9641 22.8902L66.5013 22.5464C67.0017 23.3294 67.6877 24.599 68.124 25.8836C68.3421 26.5258 68.5066 27.1983 68.5442 27.8293C68.5813 28.4537 68.4978 29.1048 68.1458 29.6422C67.5687 30.5232 66.3932 31.4094 65.2601 32.1316C64.3597 32.7054 63.4204 33.2141 62.6811 33.5825C63.0837 34.446 63.546 35.5961 63.8641 36.7655C64.0626 37.4956 64.211 38.2512 64.2497 38.9591C64.288 39.6592 64.2219 40.3669 63.9436 40.9637C63.4587 42.0036 62.5028 43.0693 61.5634 43.9529C60.8227 44.6497 60.0533 45.265 59.4497 45.7101C59.8493 46.4763 60.2906 47.5128 60.5571 48.6007C60.8821 49.9272 60.9878 51.4889 60.248 52.7002C59.5924 53.7735 58.5888 54.7667 57.6312 55.5598C56.9021 56.1636 56.1766 56.6694 55.6082 57.0278C55.8999 57.7534 56.1818 58.7167 56.2702 59.7203C56.3817 60.988 56.1941 62.4428 55.1752 63.5111C53.3299 65.4456 50.5867 65.8565 49.4319 65.8304C49.0795 65.8224 48.7999 65.53 48.8078 65.1776C48.8158 64.8252 49.1083 64.5456 49.4606 64.5535C50.4222 64.5752 52.7496 64.2046 54.252 62.6294C54.9064 61.943 55.0951 60.932 54.9982 59.8315C54.9021 58.7403 54.5329 57.6803 54.2257 57.0517L53.9622 56.5134L54.4828 56.2169C55.0178 55.9121 55.9125 55.3258 56.8173 54.5764C57.7275 53.8226 58.6093 52.9354 59.159 52.0355C59.6244 51.2735 59.6209 50.1421 59.3177 48.9045C59.0215 47.6952 58.4754 46.5359 58.0686 45.8488L57.7651 45.3345L58.2567 44.997C58.8438 44.5944 59.7889 43.8699 60.6886 43.0236C61.6013 42.1651 62.4084 41.2353 62.7866 40.4241ZM51.2548 40.2188C50.7704 39.9339 50.1321 39.6508 49.3639 39.377C47.8286 38.8297 45.8452 38.3415 43.7043 37.9387C39.561 37.1592 34.9163 36.7144 31.9508 36.7456C31.5117 37.3113 31.0488 37.851 30.5644 38.3619L43.8102 43.5495C44.1384 43.6781 44.2999 44.0486 44.1713 44.3768C44.0427 44.7048 43.6722 44.8664 43.3441 44.7379L29.5762 39.3454C28.902 39.9784 28.2017 40.5641 27.4937 41.1062L37.227 48.9503L37.3193 49.0415C37.5082 49.2704 37.5175 49.6083 37.324 49.8484C37.1306 50.0883 36.7986 50.1513 36.5349 50.0156L36.4265 49.9444L26.4258 41.8861C25.6779 42.4093 24.9309 42.8866 24.2016 43.3167C26.3112 46.1673 30.7516 51.5842 34.6409 54.4283L35.1302 54.7802C37.5269 56.4781 39.2263 57.242 40.843 57.1016C42.5671 56.9516 44.3984 55.7534 47.0107 52.9252L47.4026 52.4917C49.3379 50.3208 50.8461 48.0496 51.7143 46.0151C52.6579 43.804 52.7748 42.0504 52.1426 40.9698C52.026 40.7706 51.7522 40.5115 51.2548 40.2188ZM65.7157 68.4262C65.4724 68.6811 65.0684 68.6902 64.8133 68.447C64.5582 68.2037 64.5481 67.7992 64.7915 67.5441L65.7157 68.4262ZM73.3272 45.3393C73.4805 45.0105 73.5482 44.5413 73.5155 43.9443C73.4833 43.3553 73.3561 42.6928 73.1717 42.015C72.8027 40.6587 72.2218 39.3112 71.8016 38.4929L71.4982 37.9016L72.1013 37.623C72.8377 37.282 74.0106 36.6747 75.1153 35.9706C76.2475 35.2491 77.2063 34.4882 77.6188 33.8587C77.812 33.5638 78.2079 33.4807 78.5028 33.6739C78.7974 33.8671 78.8793 34.2626 78.6864 34.5574C78.1093 35.4384 76.9338 36.3246 75.8007 37.0467C74.9003 37.6205 73.961 38.1292 73.2217 38.4976C73.6242 39.3611 74.0855 40.5109 74.4035 41.6801C74.6021 42.4104 74.7516 43.1662 74.7903 43.8743C74.8286 44.5744 74.7625 45.282 74.4842 45.8788C73.9993 46.9188 73.0434 47.9844 72.104 48.8681C71.3633 49.5648 70.5939 50.1802 69.9902 50.6252C70.3899 51.3915 70.8312 52.4279 71.0977 53.5159C71.4226 54.8424 71.5284 56.404 70.7886 57.6153C70.133 58.6887 69.1294 59.6818 68.1717 60.4749C67.4427 61.0787 66.7172 61.5845 66.1488 61.943C66.4405 62.6685 66.7224 63.6319 66.8108 64.6355C66.9222 65.9032 66.7347 67.358 65.7157 68.4262L64.7915 67.5441C65.4461 66.8576 65.6357 65.8473 65.5388 64.7467C65.4427 63.6555 65.0735 62.5955 64.7662 61.9668L64.5028 61.4285L65.0234 61.1321C65.5583 60.8272 66.4521 60.2403 67.3568 59.4911C68.267 58.7372 69.1498 57.8506 69.6996 56.9507C70.165 56.1887 70.1604 55.0568 69.8572 53.8191C69.598 52.7613 69.1487 51.7416 68.7679 51.0429L68.6092 50.7639L68.3045 50.2491L68.7973 49.9121C69.3844 49.5095 70.3295 48.7851 71.2292 47.9388C72.1419 47.0802 72.9489 46.1505 73.3272 45.3393ZM10.0111 18.9865L10.1153 19.064L10.8921 19.7963C12.7565 21.6041 14.9308 24.0807 16.3791 26.3894C17.2005 27.6988 17.831 29.0196 17.9944 30.1675C18.0771 30.7489 18.0465 31.3301 17.819 31.8505C17.6145 32.3178 17.2702 32.6913 16.8013 32.9592L16.5923 33.0681C15.4622 33.5996 14.1962 33.4289 12.9801 32.9353C11.7594 32.4399 10.4957 31.5831 9.28562 30.5867C7.1648 28.8403 4.53415 27.2303 3.04549 25.4732L2.44299 24.7535L2.37148 24.6472C2.23164 24.3851 2.29104 24.0521 2.52888 23.8554C2.76658 23.6592 3.10359 23.664 3.33467 23.8501L3.42696 23.9413L4.02253 24.6523C5.49024 26.3843 8.06189 27.9261 10.097 29.6019C11.2617 30.5609 12.4109 31.3261 13.4603 31.7521C14.5142 32.1798 15.3757 32.2299 16.0498 31.9128L16.1642 31.8533C16.4177 31.7097 16.5639 31.5335 16.6493 31.3381C16.7528 31.1012 16.7917 30.7776 16.7305 30.347C16.6056 29.4699 16.0929 28.3335 15.2984 27.067C13.9188 24.868 11.8176 22.4717 10.0087 20.7173L9.25425 20.0078L9.16852 19.9114C8.9936 19.6715 9.00503 19.3334 9.21287 19.1054C9.42064 18.8776 9.75613 18.8347 10.0111 18.9865ZM65.6204 22.353C65.9173 22.1632 66.3114 22.2495 66.5013 22.5464L65.4258 23.2334C65.2364 22.9365 65.3237 22.5428 65.6204 22.353Z" fill="#F5F0E4"/>
<path d="M23.3349 17.4496C23.7818 16.4911 23.3672 15.3518 22.4087 14.9048C21.4502 14.4579 20.3109 14.8726 19.8639 15.8311C19.417 16.7895 19.8317 17.9289 20.7901 18.3758L20.2506 19.5328C18.6532 18.7879 17.962 16.889 18.7069 15.2915C19.4518 13.6941 21.3507 13.0029 22.9482 13.7479C24.5457 14.4928 25.2368 16.3916 24.4919 17.9891C23.747 19.5866 21.8481 20.2777 20.2506 19.5328L20.7901 18.3758C21.7486 18.8228 22.8879 18.4081 23.3349 17.4496Z" fill="#F5F0E4"/>
</svg>
