<svg width="101" height="103" viewBox="0 0 101 103" fill="none" xmlns="http://www.w3.org/2000/svg">
<path d="M29.59 3.94072C24.9709 5.09981 27.1668 11.1519 24.3009 13.2255C21.1807 12.9362 15.8 11.7355 13.5073 13.3944C10.6414 15.468 13.8742 22.953 11.7247 24.5082C9.57534 26.0634 3.20291 26.308 2.09031 29.2962C0.97772 32.2843 7.59471 38.4122 6.68018 40.1655C5.76565 41.9187 0.628014 42.3614 0.0339034 46.066C-0.560207 49.7706 6.84904 50.9589 6.97124 54.1452C7.09344 57.3315 2.07824 60.9603 2.71892 64.8629C3.35961 68.7656 12.0037 70.1521 13.0405 71.585C14.0773 73.0179 11.6541 80.2291 13.7277 83.095C15.8013 85.9609 23.2864 82.7281 25.5581 84.3591C27.8298 85.9901 26.2453 95.8691 29.2335 96.9817C32.2216 98.0943 37.7553 95.1819 39.5086 96.0964C41.2619 97.011 46.1256 102.224 48.5953 102.62C51.0651 103.017 54.7232 96.0034 56.1561 94.9666C57.5891 93.9298 64.6022 97.5879 67.27 96.7492C69.9378 95.9104 69.3729 87.5867 71.5223 86.0314C73.6717 84.4762 83.3526 87.2956 85.5021 85.7404C87.6515 84.1852 85.3333 74.9469 86.2478 73.1936C87.1623 71.4403 96.721 71.0735 98.352 68.8018C99.983 66.5301 95.3173 60.0819 94.997 58.1305C94.6766 56.1792 100.408 52.032 100.805 49.5622C101.201 47.0925 92.9527 43.2363 93.1507 42.0014C93.3488 40.7665 96.6108 36.2232 97.205 32.5185C97.7992 28.8139 86.365 25.08 85.3281 23.6471C84.2913 22.2141 86.7146 15.0029 85.3574 11.6187C84.0003 8.23439 76.5153 11.4671 75.4784 10.0342C74.4416 8.60123 72.0477 3.78401 69.2576 1.43654C66.4675 -0.91092 61.7725 4.66926 59.1047 5.50801C56.4369 6.34676 53.7226 -0.4218 48.5851 0.0208265C43.4475 0.463448 42.6552 5.40294 40.7039 5.72329C38.7526 6.04363 34.2092 2.78163 29.59 3.94072Z" fill="#F5F0E4"/>
<path d="M27.6687 30.2063C31.6896 23.6905 38.6235 18.8745 46.991 18.928L47.9979 18.9468C68.2953 19.5748 77.9064 35.1685 78.6638 46.8855L78.7107 48.0232C78.8071 54.1849 76.4404 60.5661 72.8345 65.9102C69.451 70.9246 64.8075 75.2784 59.61 77.8029L58.5638 78.2827C52.1207 81.0654 46.7345 81.5678 42.3696 80.8801C38.5625 80.2803 35.6919 78.8016 33.6977 77.3912L32.8957 76.7926L32.6651 76.5905C31.5705 75.5349 31.4309 73.8011 32.3909 72.5798C33.4147 71.2773 35.301 71.0513 36.6036 72.0749L37.1595 72.49C38.5469 73.4721 40.5701 74.5216 43.3022 74.9523C46.4115 75.4422 50.6512 75.1643 56.184 72.7747L57.0007 72.4007C61.067 70.4219 64.9498 66.8691 67.8621 62.553C70.9716 57.9443 72.7841 52.75 72.7117 48.1184L72.6754 47.2286C72.078 38.0616 64.4623 25.4528 47.7803 24.9432L46.9519 24.9278C41.0634 24.8902 35.9154 28.2708 32.7764 33.3572C29.6328 38.4515 28.7046 44.9615 31.022 50.7402C33.2303 56.2466 38.5987 59.2617 43.7158 59.3711C46.247 59.4252 48.5537 58.7589 50.2919 57.4914C51.9853 56.2564 53.2997 54.3394 53.7527 51.5158L53.7958 51.1857C53.9448 49.5551 53.215 48.1997 51.9008 47.094C50.396 45.828 48.5298 45.2653 47.5535 45.2806C45.8969 45.3064 44.5339 43.9842 44.508 42.3275C44.4821 40.6709 45.8032 39.3063 47.4599 39.2804C50.0814 39.2395 53.3155 40.4439 55.7633 42.5033C58.2342 44.5821 60.2534 47.8573 59.7365 52.056L59.6779 52.4648C58.9823 56.8016 56.8413 60.141 53.8281 62.3386C50.8598 64.5034 47.2092 65.448 43.5872 65.3706C36.3969 65.2168 28.6741 61.0037 25.4536 52.9732C22.3424 45.2149 23.6528 36.7144 27.6687 30.2063Z" fill="#E36B5B"/>
</svg>
