<svg width="450" height="426" viewBox="0 0 450 426" fill="none" xmlns="http://www.w3.org/2000/svg">
<path d="M1.04248 251C64.038 277.291 140.675 292.84 225.028 292.84C307.293 292.84 386.807 276.119 448.959 251C423.735 350.473 330.242 426 222.92 426C114.904 426 25.583 351.451 1.04248 251Z" fill="#C5AC6B"/>
<ellipse cx="225" cy="246.851" rx="225" ry="47.9167" fill="#BD9F51"/>
<path d="M20.8327 230.184C18.7494 244.767 20.8327 260.072 33.3328 268.726C60.4161 287.476 162.291 312.476 219.791 312.476C291.666 312.476 408.333 286.434 420.833 269.768C427.477 260.909 434.374 244.768 432.291 224.976C430.208 205.184 409.374 177.059 399.999 166.643C390.624 156.226 388.541 140.601 386.458 130.184C383.958 117.684 338.541 86.4343 332.291 81.226C326.041 76.0177 327.083 61.4342 315.624 47.8927C309.277 40.3909 296.874 41.6427 292.708 39.5593C288.541 37.476 267.708 2.05915 224.999 1.01748C182.291 -0.0241852 155.208 45.8091 146.874 52.0591C138.541 58.3091 138.541 52.0591 128.124 60.3925C117.708 68.7258 116.666 84.3508 110.416 93.7258C102.083 106.226 91.0758 105.699 78.1244 120.809C65.6244 135.393 68.8536 157.748 58.3328 167.684C39.5828 185.393 23.9543 208.333 20.8327 230.184Z" fill="white" stroke="#C5AC6B" stroke-width="2"/>
</svg>
