<svg width="120" height="114" viewBox="0 0 120 114" fill="none" xmlns="http://www.w3.org/2000/svg">
<path d="M111.013 28.4878C117.863 31.855 121.309 39.6547 119.187 46.9878L103.082 102.632C100.361 112.033 89.8113 116.696 81.0297 112.379L8.79802 76.8766C0.0163912 72.5602 -2.73821 61.3572 3.03994 53.459L37.2414 6.70966C41.7486 0.548621 50.0272 -1.48971 56.8774 1.87726L111.013 28.4878Z" fill="#F9E2AA"/>
<path d="M111.753 28.8509C118.175 32.0077 121.406 39.3195 119.416 46.1943L116.077 57.7323C111.032 58.3502 105.142 58.4776 100.719 56.3039C93.2731 52.6439 95.7125 47.6786 86.6116 43.2052C77.5106 38.7318 73.8798 50.3033 66.4336 46.6433C58.9874 42.9833 60.1219 28.13 56.3916 25.2691C51.1693 21.2638 49.3662 22.8433 43.5889 22.0583C39.7929 21.5426 34.6026 17.6604 31.3354 14.7773L37.7276 6.04194C41.953 0.266125 49.7142 -1.64275 56.1362 1.51342L111.753 28.8509Z" fill="#7A5A43"/>
<path d="M52.1552 8.80336C52.3798 8.34632 52.9322 8.15788 53.3892 8.38248L94.7571 28.716C95.2141 28.9406 95.4025 29.4932 95.1779 29.9502C94.9534 30.4073 94.4009 30.5957 93.944 30.3711L52.576 10.0376C52.1191 9.81299 51.9307 9.26041 52.1552 8.80336Z" fill="white"/>
<path d="M101.797 33.2035C102.022 32.7465 102.574 32.558 103.031 32.7826L107.995 35.2226C108.452 35.4472 108.641 35.9998 108.416 36.4569C108.192 36.9139 107.639 37.1023 107.182 36.8777L102.218 34.4377C101.761 34.2131 101.573 33.6605 101.797 33.2035Z" fill="white"/>
</svg>
