<svg width="120" height="82" viewBox="0 0 120 82" fill="none" xmlns="http://www.w3.org/2000/svg">
<path d="M0.277344 14.876C17.0761 22.3877 37.5127 26.8303 60.0067 26.8303C81.9443 26.8303 103.148 22.0529 119.722 14.876C112.995 43.2968 104.4 81.4474 60.0067 81.4474C18.7995 81.4474 6.82148 43.5763 0.277344 14.876Z" fill="#505166"/>
<ellipse cx="60" cy="13.6905" rx="60" ry="13.6905" fill="#373852"/>
<path d="M60 4.30469C90.4855 4.30471 115.199 10.4445 115.2 18.0186C115.2 18.4037 115.134 18.785 115.009 19.1621C105.752 23.9981 84.6064 27.3809 60 27.3809C35.3929 27.3809 14.247 23.9983 4.99023 19.1621C4.86494 18.785 4.7998 18.4037 4.7998 18.0186C4.80058 10.4445 29.5144 4.30469 60 4.30469Z" fill="#E36B5B"/>
</svg>
