<svg width="129" height="103" viewBox="0 0 129 103" fill="none" xmlns="http://www.w3.org/2000/svg">
<path d="M108.856 0.360436C106.858 0.434394 105.327 7.76613 104.508 11.2767C103.86 14.052 103.607 15.6526 103.065 18.2335C102.494 20.9488 101.658 24.8387 101.658 24.8387L108.097 31.2037C111.292 30.1183 118.062 27.7033 119.587 26.7264C121.493 25.5053 128.265 21.9531 128.209 19.1037C128.165 16.8242 123.836 16.7477 121.678 16.9943C122.134 14.9097 122.929 10.5148 122.455 9.61192C121.982 8.709 120.075 9.7167 119.18 10.3334C119.063 8.06998 119.158 3.79102 117.811 3.0805C116.464 2.36998 113.784 4.1967 112.945 5.41166C112.415 3.6971 110.855 0.286479 108.856 0.360436Z" fill="#E36B5B"/>
<path d="M100.498 22.9497C102.745 23.0355 105.434 24.8415 107.561 26.6332C107.561 26.6332 107.84 26.8459 107.96 26.9675C108.07 27.0795 107.807 26.8193 108.007 27.0154C109.712 28.5031 110.973 29.8953 111.205 30.182L111.522 30.5743C111.889 31.0939 112.054 31.3485 112.081 32.0696C112.173 34.5931 108.902 41.3511 108.086 42.7805C105.427 47.4419 107.151 51.6587 100.994 55.6781C94.2154 60.1031 93.4804 62.3204 92.2244 64.0914C90.9685 65.8627 89.6628 71.4075 87.2809 72.233C84.899 73.0585 78.8709 75.6821 77.2853 76.4987C75.7002 77.3152 74.1319 79.7289 71.7585 81.3528C69.3849 82.9766 63.6512 83.3611 62.0748 84.976C60.4984 86.5909 60.0388 88.3523 57.986 90.1322C55.9332 91.9122 52.0879 90.0398 50.1995 92.2965C48.3112 94.5538 48.273 97.2926 44.909 98.2499C41.0754 99.3408 38.1336 98.9025 36.0807 100.683C34.0277 102.462 29.7068 98.9671 25.5926 101.729C22.3011 103.937 18.3716 102.183 16.8183 101.029C15.7586 101.307 13.128 101.774 11.0838 101.414C8.52886 100.963 8.98761 99.2015 8.18218 98.4121C7.46687 97.7111 7.0186 98.3912 5.5746 97.338C4.27184 97.2003 1.55576 96.7679 1.19878 94.7235C0.751833 92.1633 1.81496 92.2748 1.57271 91.1721C1.33012 90.0696 -0.404238 89.5273 0.566272 87.1163C1.34282 85.1873 3.12916 83.1968 3.92529 82.4428C3.77039 80.5113 4.3636 76.2409 7.97527 74.6105C12.4902 72.5723 13.3668 74.4599 15.9599 73.6558C18.5531 72.8516 17.7891 69.8985 21.5203 68.496C25.2516 67.0935 25.8112 68.5885 28.7213 68.1769C31.6316 67.7652 32.0804 63.5036 34.6736 62.6993C37.2668 61.8951 39.0017 62.4368 41.2031 61.9504C43.4045 61.4641 46.7635 56.7907 49.3942 55.6313C52.0248 54.472 54.8977 54.4154 56.4277 53.4992C57.9576 52.5831 63.3685 48.8438 65.3276 47.2547C67.2867 45.6656 71.8586 39.684 74.0227 39.5523C76.1867 39.4211 82.6235 36.149 86.5045 33.3259C90.3853 30.5028 95.1444 22.7453 100.498 22.9497Z" fill="#F9E2A9"/>
<path d="M11.2097 80.802C11.8879 80.3675 12.8403 80.0375 13.9027 80.3688C14.8773 80.6728 15.6532 81.4307 16.1931 82.1084C16.3215 82.2696 16.4423 82.4339 16.555 82.5972C16.7143 82.4182 16.888 82.2424 17.0753 82.0766C17.7809 81.4516 18.8024 80.8651 20.0368 80.995C21.1624 81.1135 22.2385 81.7635 23.057 82.3971C23.7951 82.9684 24.4315 83.6116 24.8532 84.1023L25.0206 84.3026L25.0806 84.3855C25.358 84.8096 25.2748 85.3831 24.8725 85.7089C24.4701 86.0347 23.8908 85.9974 23.5338 85.6376L23.4663 85.5608L23.173 85.2216C22.8338 84.8483 22.3628 84.3889 21.8329 83.9788C21.1013 83.4125 20.3892 83.0431 19.8274 82.984C19.3745 82.9364 18.8912 83.1404 18.4013 83.5742C17.9162 84.004 17.5454 84.5587 17.3664 84.9166L16.4137 86.8215L15.5565 84.8714C15.3955 84.5054 15.0657 83.9029 14.6291 83.3548C14.175 82.7847 13.7085 82.4041 13.3068 82.2788C12.9926 82.1808 12.6583 82.2487 12.2883 82.4858C11.9088 82.729 11.6006 83.0877 11.4499 83.3235C11.1525 83.7889 10.5341 83.9251 10.0687 83.6278C9.60334 83.3304 9.46701 82.7119 9.76434 82.2465C10.0392 81.8163 10.5414 81.2303 11.2097 80.802Z" fill="#C5AC6B"/>
<path d="M53.0227 59.5532C53.6748 59.2311 54.557 59.0273 55.4995 59.3756C56.3716 59.6981 57.0462 60.3891 57.5095 61.0001C57.605 61.126 57.6942 61.2543 57.7789 61.3813C57.9197 61.2579 58.0699 61.1372 58.2299 61.0249C58.9199 60.5403 59.8846 60.1266 60.9941 60.3206C62.0059 60.4975 62.9497 61.1121 63.6628 61.6984C64.2128 62.1504 64.6931 62.6417 65.0463 63.0506L65.3551 63.4278L65.4136 63.5124C65.6808 63.9431 65.5833 64.5145 65.1732 64.8306C64.763 65.1465 64.1854 65.0951 63.8371 64.7268L63.7715 64.6489L63.5279 64.3525C63.2445 64.025 62.847 63.6159 62.3934 63.243C61.7682 62.729 61.1494 62.3781 60.6496 62.2907C60.2474 62.2204 59.8177 62.3535 59.3792 62.6614C58.9395 62.9702 58.5956 63.386 58.4304 63.6485L57.3903 65.2987L56.6575 63.4911C56.536 63.1913 56.2751 62.6819 55.9162 62.2085C55.5444 61.7182 55.1538 61.3806 54.8066 61.2521C54.5298 61.1498 54.2335 61.1856 53.9088 61.3459C53.6561 61.4707 53.4373 61.649 53.2882 61.7995L53.1638 61.9384C52.8194 62.37 52.1899 62.4404 51.7582 62.0961C51.3266 61.7518 51.2554 61.123 51.5994 60.6912L51.7169 60.5522C52.0117 60.22 52.4632 59.8297 53.0227 59.5532Z" fill="#C5AC6B"/>
<path d="M68.3844 51.9778C69.0728 51.743 69.9739 51.6554 70.8632 52.1231C71.6861 52.556 72.2654 53.3287 72.6455 53.9946C72.7239 54.1319 72.7956 54.2706 72.8632 54.4075C73.0188 54.3035 73.1834 54.2033 73.3565 54.1127C74.1036 53.7217 75.1138 53.4367 76.1887 53.773C77.1691 54.0798 78.0251 54.8116 78.6562 55.4854C79.1428 56.005 79.5553 56.5544 79.8525 57.0058L80.1097 57.4198L80.1568 57.5113C80.3658 57.973 80.195 58.527 79.7474 58.7871C79.2997 59.0471 78.7336 58.9212 78.4361 58.5108L78.381 58.4251L78.178 58.0996C77.9395 57.7381 77.5984 57.2809 77.1971 56.8523C76.6438 56.2615 76.0758 55.8333 75.5915 55.6818C75.2019 55.5599 74.7585 55.6361 74.2838 55.8845C73.8078 56.1337 73.4128 56.5013 73.2149 56.7401L71.9695 58.2414L71.4775 56.354C71.3959 56.041 71.2033 55.5021 70.9088 54.9861C70.6038 54.4517 70.2603 54.0662 69.9327 53.8938C69.6716 53.7564 69.3731 53.7535 69.0303 53.8703C68.6746 53.9917 68.3661 54.2151 68.2147 54.3611C67.8173 54.7444 67.184 54.7325 66.8006 54.3351C66.4173 53.9377 66.4283 53.305 66.8254 52.9215C67.1538 52.6047 67.709 52.2082 68.3844 51.9778Z" fill="#C5AC6B"/>
<path d="M34.1836 92.377C34.2029 92.1946 34.1686 91.7304 34.0169 91.237C33.8566 90.7153 33.6506 90.4414 33.5295 90.3638C32.8366 89.9211 32.178 90.0623 31.3543 90.505L30.9908 90.7122C30.5167 90.9953 29.9033 90.8406 29.62 90.3666C29.3368 89.8925 29.4916 89.2791 29.9657 88.9958L30.3817 88.7568C31.4268 88.1909 32.9681 87.6315 34.6065 88.6783C35.3445 89.15 35.7306 90.0049 35.9288 90.6498C36.1358 91.3236 36.2275 92.0658 36.1727 92.5864C36.1147 93.1353 35.6224 93.5337 35.0734 93.4762C34.5243 93.4184 34.126 92.9261 34.1836 92.377Z" fill="#C5AC6B"/>
<path d="M38.5016 74.9986C38.5208 74.8162 38.4866 74.352 38.3349 73.8587C38.1746 73.3369 37.9686 73.063 37.8475 72.9855C37.1546 72.5427 36.496 72.684 35.6723 73.1266L35.3088 73.3338C34.8347 73.6169 34.2213 73.4622 33.938 72.9882C33.6548 72.5141 33.8096 71.9007 34.2837 71.6175L34.6997 71.3784C35.7448 70.8126 37.2861 70.2531 38.9245 71.2999C39.6625 71.7716 40.0485 72.6265 40.2468 73.2715C40.4538 73.9452 40.5455 74.6875 40.4906 75.208C40.4326 75.7569 39.9404 76.1554 39.3914 76.0978C38.8423 76.04 38.444 75.5477 38.5016 74.9986Z" fill="#C5AC6B"/>
<path d="M50.0461 86.8774C50.0653 86.695 50.031 86.2308 49.8794 85.7375C49.719 85.2157 49.513 84.9418 49.392 84.8643C48.699 84.4215 48.0404 84.5628 47.2168 85.0054L46.8532 85.2126C46.3792 85.4957 45.7657 85.341 45.4825 84.867C45.1992 84.3929 45.354 83.7795 45.8281 83.4962L46.2441 83.2572C47.2892 82.6913 48.8306 82.1319 50.4689 83.1787C51.2069 83.6504 51.593 84.5053 51.7912 85.1503C51.9982 85.824 52.0899 86.5662 52.0351 87.0868C51.9771 87.6357 51.4848 88.0342 50.9359 87.9766C50.3867 87.9188 49.9885 87.4265 50.0461 86.8774Z" fill="#C5AC6B"/>
<path d="M55.4053 76.4838C55.4053 76.4838 55.4067 76.4765 55.4067 76.4613C55.4066 76.4453 55.4053 76.4232 55.4028 76.3951C55.398 76.3383 55.3873 76.2651 55.3686 76.1794C55.3309 76.007 55.2658 75.8061 55.1717 75.6058C54.9738 75.1846 54.7069 74.8842 54.4317 74.7532C53.0923 74.1165 51.8689 74.4487 50.6464 74.9389L50.5496 74.9719C50.0624 75.1124 49.5387 74.8634 49.3459 74.3826C49.1404 73.8701 49.3887 73.2877 49.9011 73.0821L50.4249 72.8829C51.7081 72.4222 53.4155 72.0555 55.2897 72.9464C56.137 73.3491 56.6739 74.0994 56.9817 74.7546C57.2818 75.3931 57.4533 76.133 57.3943 76.6932C57.3363 77.2423 56.8443 77.6408 56.2951 77.583C55.7461 77.5249 55.3476 77.0328 55.4053 76.4838Z" fill="#C5AC6B"/>
<path d="M73.6485 72.0068C73.6485 72.0068 73.6499 71.9995 73.6498 71.9844C73.6498 71.9683 73.6484 71.9463 73.646 71.9182C73.6411 71.8614 73.6305 71.7882 73.6118 71.7025C73.5741 71.5301 73.509 71.3292 73.4149 71.1289C73.217 70.7077 72.9501 70.4073 72.6749 70.2762C71.3355 69.6395 70.1121 69.9717 68.8895 70.4619L68.7928 70.4949C68.3055 70.6354 67.7818 70.3865 67.5891 69.9057C67.3836 69.3932 67.6319 68.8107 68.1443 68.6051L68.6681 68.406C69.9513 67.9453 71.6586 67.5786 73.5329 68.4694C74.3802 68.8722 74.9171 69.6225 75.2249 70.2776C75.5249 70.9162 75.6965 71.6561 75.6375 72.2162C75.5795 72.7654 75.0874 73.1639 74.5383 73.106C73.9893 73.048 73.5908 72.5558 73.6485 72.0068Z" fill="#C5AC6B"/>
<path d="M93.1499 55.5771C93.1499 55.5771 93.1514 55.5698 93.1513 55.5547C93.1513 55.5386 93.1499 55.5166 93.1475 55.4885C93.1426 55.4317 93.132 55.3585 93.1133 55.2728C93.0756 55.1004 93.0104 54.8995 92.9164 54.6992C92.7185 54.278 92.4516 53.9776 92.1764 53.8465C90.8369 53.2098 89.6136 53.542 88.391 54.0322L88.2943 54.0652C87.807 54.2057 87.2833 53.9568 87.0906 53.476C86.8851 52.9635 87.1334 52.381 87.6458 52.1754L88.1695 51.9762C89.4528 51.5156 91.1601 51.1489 93.0344 52.0397C93.8817 52.4425 94.4185 53.1928 94.7264 53.8479C95.0264 54.4865 95.1979 55.2264 95.139 55.7865C95.081 56.3357 94.5889 56.7341 94.0397 56.6763C93.4908 56.6183 93.0923 56.1261 93.1499 55.5771Z" fill="#C5AC6B"/>
<path d="M86.3796 45.6231C86.3935 45.4916 86.3612 45.0953 86.2092 44.6586C86.0519 44.2067 85.8547 43.9663 85.73 43.8932C84.8895 43.4005 84.103 43.6563 83.1262 44.1798C82.6394 44.4407 82.0329 44.2569 81.772 43.7701C81.5113 43.2835 81.6942 42.6777 82.1806 42.4168C83.2126 41.8636 84.904 41.0912 86.7414 42.1684C87.4802 42.6016 87.8855 43.391 88.098 44.0012C88.3157 44.6268 88.4219 45.327 88.3686 45.8325C88.3107 46.3815 87.8184 46.7799 87.2694 46.7223C86.7203 46.6645 86.3219 46.1723 86.3796 45.6231Z" fill="#C5AC6B"/>
<path d="M98.8499 41.9597C98.8637 41.8282 98.8314 41.4319 98.6794 40.9952C98.5221 40.5433 98.3249 40.3029 98.2003 40.2298C97.3597 39.7371 96.5732 39.9929 95.5964 40.5164C95.1096 40.7773 94.5031 40.5935 94.2422 40.1067C93.9816 39.6201 94.1644 39.0143 94.6508 38.7534C95.6829 38.2002 97.3743 37.4278 99.2116 38.505C99.9504 38.9382 100.356 39.7276 100.568 40.3378C100.786 40.9634 100.892 41.6636 100.839 42.1691C100.781 42.7181 100.289 43.1165 99.7396 43.0589C99.1905 43.0011 98.7922 42.5089 98.8499 41.9597Z" fill="#C5AC6B"/>
</svg>
