<svg width="91" height="107" viewBox="0 0 91 107" fill="none" xmlns="http://www.w3.org/2000/svg">
<path d="M75.7917 19.9455L87.9918 21.5664L73.6918 30.1836L63.2513 22.2726L51.3894 16.705L52.4289 0.0737305L59.5167 10.1108L68.3741 2.31288L69.0129 12.7899L78.6216 8.50601L75.7917 19.9455Z" fill="#77A974"/>
<path d="M43.0635 102.13C23.7104 113.505 -0.556542 98.8387 0.595685 76.4647C2.17547 61.0311 3.0612 52.3782 4.64098 36.9446C5.73489 15.703 26.8841 6.65612 47.4062 14.3406C61.8918 19.7646 67.3167 23.0432 78.564 33.171C92.4496 48.7137 96.6401 70.6423 78.2666 81.4408C64.5189 89.5206 56.8111 94.0507 43.0635 102.13Z" fill="#E36B5B"/>
<path d="M30.2185 36.0213C28.6003 37.0997 26.7625 37.189 26.1137 36.2207C25.4649 35.2524 26.2507 33.5931 27.8689 32.5146C29.4871 31.4362 31.3249 31.3469 31.9737 32.3152C32.6225 33.2835 31.8367 34.9428 30.2185 36.0213Z" fill="#F5F0E4"/>
<path d="M44.3691 85.5846C42.5162 86.1784 40.7245 85.761 40.3672 84.6522C40.01 83.5434 41.2224 82.1632 43.0754 81.5693C44.9283 80.9755 46.72 81.3929 47.0773 82.5017C47.4345 83.6105 46.2221 84.9907 44.3691 85.5846Z" fill="#F5F0E4"/>
<path d="M17.3771 75.6882C16.9095 77.5724 15.6115 78.873 14.478 78.5932C13.3444 78.3134 12.8046 76.5591 13.2722 74.6749C13.7398 72.7907 15.0378 71.4901 16.1714 71.7699C17.3049 72.0498 17.8447 73.804 17.3771 75.6882Z" fill="#F5F0E4"/>
<path d="M33.803 57.8566C32.7944 59.5166 31.1671 60.3731 30.1684 59.7695C29.1697 59.166 29.1778 57.3309 30.1864 55.6709C31.1951 54.0108 32.8223 53.1544 33.821 53.758C34.8197 54.3615 34.8117 56.1965 33.803 57.8566Z" fill="#F5F0E4"/>
<path d="M53.918 58.4333C53.2406 60.253 51.8039 61.3995 50.7092 60.9941C49.6145 60.5886 49.2762 58.7849 49.9537 56.9652C50.6312 55.1456 52.0679 53.9991 53.1626 54.4045C54.2573 54.8099 54.5955 56.6137 53.918 58.4333Z" fill="#F5F0E4"/>
<path d="M72.9799 54.9553C72.6398 56.8664 71.432 58.2508 70.2822 58.0473C69.1325 57.8437 68.4761 56.1294 68.8162 54.2182C69.1563 52.3071 70.3641 50.9227 71.5139 51.1262C72.6637 51.3298 73.3201 53.0441 72.9799 54.9553Z" fill="#F5F0E4"/>
</svg>
