<svg width="91" height="91" viewBox="0 0 91 91" fill="none" xmlns="http://www.w3.org/2000/svg">
<path d="M75.1594 11.4245C94.0484 27.7352 96.139 56.2698 79.8285 75.1589C63.5178 94.0481 34.9819 96.1383 16.0928 79.8276C-2.79593 63.5169 -4.88595 34.9818 11.4246 16.0928C27.7353 -2.79636 56.2703 -4.88615 75.1594 11.4245Z" fill="#C5AC6B"/>
<path d="M59.0701 13.9759C58.8421 14.3916 57.9203 14.3243 57.0112 13.8255C56.102 13.3268 55.5499 12.5855 55.778 12.1699C56.006 11.7542 56.9278 11.8215 57.8369 12.3202C58.7461 12.819 59.2982 13.5602 59.0701 13.9759Z" fill="#505166"/>
<path d="M61.3612 19.938C61.022 20.2692 60.1597 19.9364 59.4352 19.1946C58.7107 18.4527 58.3983 17.5828 58.7375 17.2516C59.0767 16.9203 59.939 17.2531 60.6635 17.995C61.388 18.7368 61.7004 19.6067 61.3612 19.938Z" fill="#505166"/>
<path d="M65.9102 17.643C65.571 17.9742 64.7087 17.6414 63.9842 16.8996C63.2597 16.1577 62.9473 15.2878 63.2865 14.9566C63.6257 14.6253 64.488 14.9581 65.2125 15.7C65.937 16.4418 66.2494 17.3117 65.9102 17.643Z" fill="#505166"/>
<path d="M56.3035 19.8461C55.9643 20.1773 55.102 19.8445 54.3775 19.1027C53.653 18.3609 53.3407 17.4909 53.6799 17.1597C54.019 16.8284 54.8813 17.1612 55.6058 17.9031C56.3303 18.6449 56.6427 19.5148 56.3035 19.8461Z" fill="#505166"/>
<path d="M64.6167 25.0584C64.3711 25.4639 63.453 25.3573 62.566 24.8202C61.679 24.283 61.1591 23.5189 61.4047 23.1133C61.6503 22.7078 62.5684 22.8144 63.4554 23.3515C64.3423 23.8887 64.8623 24.6528 64.6167 25.0584Z" fill="#505166"/>
<path d="M67.9148 22.6804C67.5815 23.0176 66.7135 22.6999 65.9761 21.9708C65.2388 21.2418 64.9112 20.3775 65.2446 20.0403C65.5779 19.7032 66.4459 20.0209 67.1833 20.7499C67.9206 21.4789 68.2482 22.3433 67.9148 22.6804Z" fill="#505166"/>
<path d="M72.4798 18.6348C72.0755 18.8825 71.3086 18.3664 70.767 17.4822C70.2254 16.598 70.1141 15.6804 70.5184 15.4328C70.9227 15.1851 71.6895 15.7012 72.2311 16.5854C72.7727 17.4696 72.8841 18.3872 72.4798 18.6348Z" fill="#505166"/>
<path d="M73.49 23.844C73.2339 24.243 72.3189 24.1125 71.4462 23.5524C70.5735 22.9924 70.0737 22.2149 70.3298 21.8159C70.5858 21.4169 71.5009 21.5474 72.3735 22.1075C73.2462 22.6675 73.746 23.445 73.49 23.844Z" fill="#505166"/>
<path d="M71.7678 28.4966C71.5118 28.8956 70.5967 28.7651 69.7241 28.205C68.8514 27.645 68.3516 26.8675 68.6076 26.4685C68.8637 26.0695 69.7787 26.2 70.6514 26.7601C71.5241 27.3201 72.0239 28.0976 71.7678 28.4966Z" fill="#505166"/>
<path d="M77.1632 31.0973C76.8244 31.4291 75.9617 31.0975 75.2361 30.3566C74.5106 29.6158 74.197 28.7464 74.5357 28.4146C74.8745 28.0829 75.7372 28.4145 76.4628 29.1553C77.1883 29.8961 77.5019 30.7656 77.1632 31.0973Z" fill="#505166"/>
<path d="M71.5796 34.2827C71.1718 34.5246 70.4124 33.9977 69.8835 33.1058C69.3545 32.214 69.2563 31.2949 69.6641 31.053C70.0719 30.8112 70.8312 31.3381 71.3602 32.23C71.8892 33.1218 71.9874 34.0409 71.5796 34.2827Z" fill="#505166"/>
</svg>
