<svg width="94" height="114" viewBox="0 0 94 114" fill="none" xmlns="http://www.w3.org/2000/svg">
<path d="M71.1495 2.74111C76.8036 -2.57164 86.0922 1.02723 86.6907 8.76261L93.9527 102.612C94.4774 109.393 90.9411 110.384 81.4007 111.941C45.0269 117.878 28.6831 110.756 5.54043 82.549C0.953421 76.9583 -2.40582 71.8555 2.55119 67.1978L71.1495 2.74111Z" fill="#E36B5B"/>
<path d="M5.54043 82.549C28.6831 110.756 45.0269 117.878 81.4007 111.941C90.9411 110.384 94.4774 109.393 93.9527 102.612L92.7951 87.6547C78.5914 89.6608 61.5433 95.8513 46.464 90.0088C34.975 85.5573 20.5441 70.4622 11.1091 59.1552L2.55119 67.1978C-2.40582 71.8555 0.953421 76.9583 5.54043 82.549Z" fill="#F5F0E4"/>
<path d="M5.54043 82.549C28.6831 110.756 45.0269 117.878 81.4007 111.941C90.9409 110.384 94.4787 109.393 93.954 102.612L93.4766 96.4667C79.418 98.4181 58.7153 103.151 43.4041 97.9074C28.5568 91.466 14.8793 75.6409 5.80534 64.14L2.55273 67.1978C-2.40415 71.8554 0.953607 76.9585 5.54043 82.549Z" fill="#77A974"/>
<path d="M47.4231 59.8236C47.884 58.6339 47.6148 57.4203 46.8216 57.113C46.0285 56.8057 45.0118 57.521 44.5508 58.7107C44.0899 59.9004 44.3592 61.114 45.1523 61.4213C45.9455 61.7286 46.9621 61.0133 47.4231 59.8236Z" fill="#323232"/>
<path d="M77.2216 38.3349C77.6826 37.1451 77.4133 35.9315 76.6201 35.6242C75.827 35.3169 74.8103 36.0323 74.3494 37.222C73.8884 38.4117 74.1577 39.6253 74.9508 39.9326C75.744 40.2399 76.7606 39.5246 77.2216 38.3349Z" fill="#323232"/>
<path d="M69.5214 66.7341C69.9824 65.5443 69.7131 64.3308 68.9199 64.0234C68.1268 63.7161 67.1101 64.4315 66.6492 65.6212C66.1882 66.8109 66.4575 68.0245 67.2506 68.3318C68.0438 68.6391 69.0605 67.9238 69.5214 66.7341Z" fill="#323232"/>
<path d="M64.1532 46.4853C64.6141 45.2956 64.3449 44.082 63.5517 43.7747C62.7586 43.4674 61.7419 44.1827 61.2809 45.3724C60.82 46.5621 61.0893 47.7757 61.8824 48.083C62.6756 48.3903 63.6922 47.675 64.1532 46.4853Z" fill="#323232"/>
<path d="M69.6276 23.8308C70.0886 22.6411 69.8193 21.4275 69.0262 21.1202C68.233 20.8129 67.2164 21.5282 66.7554 22.7179C66.2944 23.9076 66.5637 25.1212 67.3569 25.4285C68.15 25.7358 69.1667 25.0205 69.6276 23.8308Z" fill="#323232"/>
</svg>
