<svg width="201" height="201" viewBox="0 0 201 201" fill="none" xmlns="http://www.w3.org/2000/svg">
<circle cx="100.725" cy="100.69" r="99.9169" fill="#505166"/>
<ellipse cx="73.4267" cy="29.1616" rx="4.15144" ry="1.89818" transform="rotate(-12.0619 73.4267 29.1616)" fill="#C5AC6B"/>
<ellipse cx="85.7987" cy="34.6093" rx="4.15144" ry="1.89818" transform="rotate(4.86688 85.7987 34.6093)" fill="#C5AC6B"/>
<ellipse cx="90.096" cy="24.1937" rx="4.15144" ry="1.89818" transform="rotate(4.86688 90.096 24.1937)" fill="#C5AC6B"/>
<ellipse cx="77.2039" cy="41.7626" rx="4.15144" ry="1.89818" transform="rotate(4.86688 77.2039 41.7626)" fill="#C5AC6B"/>
<ellipse cx="98.6914" cy="39.5186" rx="4.15144" ry="1.89818" transform="rotate(-9.61261 98.6914 39.5186)" fill="#C5AC6B"/>
<ellipse cx="100.725" cy="29.8005" rx="4.15144" ry="1.89818" transform="rotate(3.86347 100.725 29.8005)" fill="#C5AC6B"/>
<ellipse cx="102.705" cy="15.4504" rx="4.15144" ry="1.89818" transform="rotate(17.7009 102.705 15.4504)" fill="#C5AC6B"/>
<ellipse cx="111.77" cy="24.557" rx="4.15144" ry="1.89818" transform="rotate(-8.11929 111.77 24.557)" fill="#C5AC6B"/>
<ellipse cx="115.611" cy="34.8314" rx="4.15144" ry="1.89818" transform="rotate(-8.11929 115.611 34.8314)" fill="#C5AC6B"/>
<ellipse cx="128.37" cy="30.4547" rx="4.15144" ry="1.89818" transform="rotate(4.78593 128.37 30.4547)" fill="#C5AC6B"/>
<ellipse cx="123.831" cy="42.883" rx="4.15144" ry="1.89818" transform="rotate(18.5176 123.831 42.883)" fill="#C5AC6B"/>
<g opacity="0.9">
<circle cx="100.725" cy="100.69" r="38.516" transform="rotate(-180 100.725 100.69)" fill="#F5F0E4"/>
<g clip-path="url(#clip0_255_53)">
<path d="M111.142 105.774V89.1069C111.142 88.5544 111.361 88.0245 111.752 87.6338C112.143 87.2431 112.673 87.0236 113.225 87.0236H117.392C117.944 87.0236 118.474 87.2431 118.865 87.6338C119.256 88.0245 119.475 88.5544 119.475 89.1069V103.69C119.475 104.243 119.256 104.773 118.865 105.163C118.474 105.554 117.944 105.774 117.392 105.774H111.142C108.932 105.774 106.812 106.652 105.249 108.214C103.686 109.777 102.808 111.897 102.808 114.107V116.19C102.808 117.295 102.369 118.355 101.588 119.137C100.807 119.918 99.7468 120.357 98.6418 120.357C97.5367 120.357 96.4769 119.918 95.6955 119.137C94.9141 118.355 94.4751 117.295 94.4751 116.19V105.774H88.2251C87.12 105.774 86.0602 105.335 85.2788 104.553C84.4974 103.772 84.0584 102.712 84.0584 101.607L86.1418 91.1903C86.4414 89.9122 87.0097 88.8148 87.7612 88.0633C88.5127 87.3118 89.4067 86.9469 90.3084 87.0236H104.892C106.549 87.0236 108.139 87.6821 109.311 88.8542C110.483 90.0263 111.142 91.616 111.142 93.2736" fill="#E36B5B"/>
<path d="M111.142 105.774V89.1069C111.142 88.5544 111.361 88.0245 111.752 87.6338C112.143 87.2431 112.673 87.0236 113.225 87.0236H117.392C117.944 87.0236 118.474 87.2431 118.865 87.6338C119.256 88.0245 119.475 88.5544 119.475 89.1069V103.69C119.475 104.243 119.256 104.773 118.865 105.163C118.474 105.554 117.944 105.774 117.392 105.774H111.142ZM111.142 105.774C108.932 105.774 106.812 106.652 105.249 108.214C103.686 109.777 102.808 111.897 102.808 114.107V116.19C102.808 117.295 102.369 118.355 101.588 119.137C100.807 119.918 99.7468 120.357 98.6418 120.357C97.5367 120.357 96.4769 119.918 95.6955 119.137C94.9141 118.355 94.4751 117.295 94.4751 116.19V105.774H88.2251C87.12 105.774 86.0602 105.335 85.2788 104.553C84.4974 103.772 84.0584 102.712 84.0584 101.607L86.1418 91.1903C86.4414 89.9122 87.0097 88.8148 87.7612 88.0633C88.5127 87.3118 89.4067 86.9469 90.3084 87.0236H104.892C106.549 87.0236 108.139 87.6821 109.311 88.8542C110.483 90.0263 111.142 91.616 111.142 93.2736" stroke="#F5F0E4" stroke-width="2" stroke-linecap="round" stroke-linejoin="round"/>
</g>
</g>
<defs>
<clipPath id="clip0_255_53">
<rect width="50" height="50" fill="white" transform="matrix(-1 0 0 -1 125.725 128.69)"/>
</clipPath>
</defs>
</svg>
