<svg width="200" height="201" viewBox="0 0 200 201" fill="none" xmlns="http://www.w3.org/2000/svg">
<circle cx="99.9792" cy="100.471" r="99.9169" fill="#505166"/>
<ellipse cx="72.6811" cy="28.9419" rx="4.15144" ry="1.89818" transform="rotate(-12.0619 72.6811 28.9419)" fill="#C5AC6B"/>
<ellipse cx="85.0531" cy="34.39" rx="4.15144" ry="1.89818" transform="rotate(4.86688 85.0531 34.39)" fill="#C5AC6B"/>
<ellipse cx="89.3504" cy="23.974" rx="4.15144" ry="1.89818" transform="rotate(4.86688 89.3504 23.974)" fill="#C5AC6B"/>
<ellipse cx="76.4578" cy="41.5434" rx="4.15144" ry="1.89818" transform="rotate(4.86688 76.4578 41.5434)" fill="#C5AC6B"/>
<ellipse cx="97.9455" cy="39.2994" rx="4.15144" ry="1.89818" transform="rotate(-9.61261 97.9455 39.2994)" fill="#C5AC6B"/>
<ellipse cx="99.9792" cy="29.5808" rx="4.15144" ry="1.89818" transform="rotate(3.86347 99.9792 29.5808)" fill="#C5AC6B"/>
<ellipse cx="101.96" cy="15.2307" rx="4.15144" ry="1.89818" transform="rotate(17.7009 101.96 15.2307)" fill="#C5AC6B"/>
<ellipse cx="111.024" cy="24.3377" rx="4.15144" ry="1.89818" transform="rotate(-8.11929 111.024 24.3377)" fill="#C5AC6B"/>
<ellipse cx="114.865" cy="34.6122" rx="4.15144" ry="1.89818" transform="rotate(-8.11929 114.865 34.6122)" fill="#C5AC6B"/>
<ellipse cx="127.624" cy="30.235" rx="4.15144" ry="1.89818" transform="rotate(4.78593 127.624 30.235)" fill="#C5AC6B"/>
<ellipse cx="123.085" cy="42.6633" rx="4.15144" ry="1.89818" transform="rotate(18.5176 123.085 42.6633)" fill="#C5AC6B"/>
</svg>
