<svg width="158" height="158" viewBox="0 0 158 158" fill="none" xmlns="http://www.w3.org/2000/svg">
<circle cx="79.1636" cy="78.7296" r="78.6563" fill="#505166"/>
<mask id="path-2-outside-1_255_22" maskUnits="userSpaceOnUse" x="72.0649" y="36.2939" width="54" height="54" fill="black">
<rect fill="white" x="72.0649" y="36.2939" width="54" height="54"/>
<path d="M78.0649 39.2939C79.7218 39.2939 81.0649 40.6371 81.0649 42.2939V81.2939H120.065C121.722 81.2939 123.065 82.6371 123.065 84.2939C123.065 85.9508 121.722 87.2939 120.065 87.2939H78.0649L77.9106 87.29C76.3767 87.2123 75.1466 85.9822 75.0688 84.4482L75.0649 84.2939V42.2939C75.0649 40.6371 76.4081 39.294 78.0649 39.2939Z"/>
</mask>
<path d="M78.0649 39.2939C79.7218 39.2939 81.0649 40.6371 81.0649 42.2939V81.2939H120.065C121.722 81.2939 123.065 82.6371 123.065 84.2939C123.065 85.9508 121.722 87.2939 120.065 87.2939H78.0649L77.9106 87.29C76.3767 87.2123 75.1466 85.9822 75.0688 84.4482L75.0649 84.2939V42.2939C75.0649 40.6371 76.4081 39.294 78.0649 39.2939Z" fill="#F5F0E4"/>
<path d="M78.0649 39.2939V36.2939H78.0648L78.0649 39.2939ZM81.0649 81.2939H78.0649V84.2939H81.0649V81.2939ZM78.0649 87.2939L77.989 90.293L78.027 90.2939H78.0649V87.2939ZM77.9106 87.29L77.7587 90.2862L77.7967 90.2881L77.8347 90.2891L77.9106 87.29ZM75.0688 84.4482L72.0698 84.5242L72.0708 84.5621L72.0727 84.6L75.0688 84.4482ZM75.0649 84.2939H72.0649V84.3319L72.0659 84.3699L75.0649 84.2939ZM78.0649 39.2939V42.2939H81.0649H84.0649C84.0649 38.9802 81.3786 36.2939 78.0649 36.2939V39.2939ZM81.0649 42.2939H78.0649V81.2939H81.0649H84.0649V42.2939H81.0649ZM81.0649 81.2939V84.2939H120.065V81.2939V78.2939H81.0649V81.2939ZM120.065 81.2939V84.2939H123.065H126.065C126.065 80.9802 123.379 78.2939 120.065 78.2939V81.2939ZM123.065 84.2939H120.065V87.2939V90.2939C123.379 90.2939 126.065 87.6077 126.065 84.2939H123.065ZM120.065 87.2939V84.2939H78.0649V87.2939V90.2939H120.065V87.2939ZM78.0649 87.2939L78.1409 84.2949L77.9866 84.291L77.9106 87.29L77.8347 90.2891L77.989 90.293L78.0649 87.2939ZM77.9106 87.29L78.0626 84.2939C78.0607 84.2938 78.061 84.2937 78.0626 84.2941C78.064 84.2944 78.0653 84.2949 78.0663 84.2953C78.0679 84.2961 78.067 84.2959 78.0649 84.2939C78.0629 84.2919 78.0628 84.2909 78.0635 84.2926C78.064 84.2936 78.0645 84.2949 78.0648 84.2964C78.0652 84.298 78.0651 84.2983 78.065 84.2965L75.0688 84.4482L72.0727 84.6C72.2283 87.6716 74.6875 90.1305 77.7587 90.2862L77.9106 87.29ZM75.0688 84.4482L78.0679 84.3723L78.064 84.218L75.0649 84.2939L72.0659 84.3699L72.0698 84.5242L75.0688 84.4482ZM75.0649 84.2939H78.0649V42.2939H75.0649H72.0649V84.2939H75.0649ZM75.0649 42.2939H78.0649H78.0651L78.0649 39.2939L78.0648 36.2939C74.7514 36.2941 72.0649 38.9802 72.0649 42.2939H75.0649Z" fill="#F5F0E4" mask="url(#path-2-outside-1_255_22)"/>
</svg>
