<svg width="201" height="201" viewBox="0 0 201 201" fill="none" xmlns="http://www.w3.org/2000/svg">
<circle cx="100.62" cy="100.471" r="99.9169" fill="#C5AC6B"/>
<ellipse cx="73.3222" cy="28.9419" rx="4.15144" ry="1.89818" transform="rotate(-12.0619 73.3222 28.9419)" fill="#505166"/>
<ellipse cx="85.6942" cy="34.39" rx="4.15144" ry="1.89818" transform="rotate(4.86688 85.6942 34.39)" fill="#505166"/>
<ellipse cx="89.9915" cy="23.974" rx="4.15144" ry="1.89818" transform="rotate(4.86688 89.9915 23.974)" fill="#505166"/>
<ellipse cx="77.099" cy="41.5434" rx="4.15144" ry="1.89818" transform="rotate(4.86688 77.099 41.5434)" fill="#505166"/>
<ellipse cx="98.5866" cy="39.2994" rx="4.15144" ry="1.89818" transform="rotate(-9.61261 98.5866 39.2994)" fill="#505166"/>
<ellipse cx="100.62" cy="29.5808" rx="4.15144" ry="1.89818" transform="rotate(3.86347 100.62 29.5808)" fill="#505166"/>
<ellipse cx="102.601" cy="15.2307" rx="4.15144" ry="1.89818" transform="rotate(17.7009 102.601 15.2307)" fill="#505166"/>
<ellipse cx="111.665" cy="24.3377" rx="4.15144" ry="1.89818" transform="rotate(-8.11929 111.665 24.3377)" fill="#505166"/>
<ellipse cx="115.506" cy="34.6122" rx="4.15144" ry="1.89818" transform="rotate(-8.11929 115.506 34.6122)" fill="#505166"/>
<ellipse cx="128.265" cy="30.235" rx="4.15144" ry="1.89818" transform="rotate(4.78593 128.265 30.235)" fill="#505166"/>
<ellipse cx="123.726" cy="42.6633" rx="4.15144" ry="1.89818" transform="rotate(18.5176 123.726 42.6633)" fill="#505166"/>
</svg>
