<svg width="201" height="201" viewBox="0 0 201 201" fill="none" xmlns="http://www.w3.org/2000/svg">
<circle cx="100.694" cy="100.691" r="99.9169" fill="#C5AC6B"/>
<ellipse cx="73.3954" cy="29.1626" rx="4.15144" ry="1.89818" transform="rotate(-12.0619 73.3954 29.1626)" fill="#505166"/>
<ellipse cx="85.7674" cy="34.6102" rx="4.15144" ry="1.89818" transform="rotate(4.86688 85.7674 34.6102)" fill="#505166"/>
<ellipse cx="90.0648" cy="24.1947" rx="4.15144" ry="1.89818" transform="rotate(4.86688 90.0648 24.1947)" fill="#505166"/>
<ellipse cx="77.1727" cy="41.7636" rx="4.15144" ry="1.89818" transform="rotate(4.86688 77.1727 41.7636)" fill="#505166"/>
<ellipse cx="98.6601" cy="39.5196" rx="4.15144" ry="1.89818" transform="rotate(-9.61261 98.6601 39.5196)" fill="#505166"/>
<ellipse cx="100.694" cy="29.8015" rx="4.15144" ry="1.89818" transform="rotate(3.86347 100.694 29.8015)" fill="#505166"/>
<ellipse cx="102.674" cy="15.4514" rx="4.15144" ry="1.89818" transform="rotate(17.7009 102.674 15.4514)" fill="#505166"/>
<ellipse cx="111.738" cy="24.558" rx="4.15144" ry="1.89818" transform="rotate(-8.11929 111.738 24.558)" fill="#505166"/>
<ellipse cx="115.58" cy="34.8324" rx="4.15144" ry="1.89818" transform="rotate(-8.11929 115.58 34.8324)" fill="#505166"/>
<ellipse cx="128.339" cy="30.4557" rx="4.15144" ry="1.89818" transform="rotate(4.78593 128.339 30.4557)" fill="#505166"/>
<ellipse cx="123.799" cy="42.884" rx="4.15144" ry="1.89818" transform="rotate(18.5176 123.799 42.884)" fill="#505166"/>
<g opacity="0.9">
<circle cx="100.694" cy="100.691" r="38.516" fill="#F5F0E4"/>
<g clip-path="url(#clip0_255_30)">
<path d="M90.2772 98.6077V115.274C90.2772 115.827 90.0577 116.357 89.667 116.748C89.2763 117.138 88.7464 117.358 88.1938 117.358H84.0272C83.4746 117.358 82.9447 117.138 82.554 116.748C82.1633 116.357 81.9438 115.827 81.9438 115.274V100.691C81.9438 100.139 82.1633 99.6086 82.554 99.2179C82.9447 98.8272 83.4746 98.6077 84.0272 98.6077H90.2772C92.4873 98.6077 94.6069 97.7298 96.1697 96.167C97.7325 94.6042 98.6105 92.4846 98.6105 90.2744V88.1911C98.6105 87.086 99.0495 86.0262 99.8309 85.2448C100.612 84.4634 101.672 84.0244 102.777 84.0244C103.882 84.0244 104.942 84.4634 105.723 85.2448C106.505 86.0262 106.944 87.086 106.944 88.1911V98.6077H113.194C114.299 98.6077 115.359 99.0467 116.14 99.8281C116.922 100.61 117.361 101.669 117.361 102.774L115.277 113.191C114.978 114.469 114.409 115.567 113.658 116.318C112.906 117.07 112.012 117.434 111.111 117.358H96.5272C94.8696 117.358 93.2799 116.699 92.1078 115.527C90.9357 114.355 90.2772 112.765 90.2772 111.108" fill="#E36B5B"/>
<path d="M90.2772 98.6077V115.274C90.2772 115.827 90.0577 116.357 89.667 116.748C89.2763 117.138 88.7464 117.358 88.1938 117.358H84.0272C83.4746 117.358 82.9447 117.138 82.554 116.748C82.1633 116.357 81.9438 115.827 81.9438 115.274V100.691C81.9438 100.139 82.1633 99.6086 82.554 99.2179C82.9447 98.8272 83.4746 98.6077 84.0272 98.6077H90.2772ZM90.2772 98.6077C92.4873 98.6077 94.6069 97.7298 96.1697 96.167C97.7325 94.6042 98.6105 92.4846 98.6105 90.2744V88.1911C98.6105 87.086 99.0495 86.0262 99.8309 85.2448C100.612 84.4634 101.672 84.0244 102.777 84.0244C103.882 84.0244 104.942 84.4634 105.723 85.2448C106.505 86.0262 106.944 87.086 106.944 88.1911V98.6077H113.194C114.299 98.6077 115.359 99.0467 116.14 99.8281C116.922 100.61 117.361 101.669 117.361 102.774L115.277 113.191C114.978 114.469 114.409 115.567 113.658 116.318C112.906 117.07 112.012 117.434 111.111 117.358H96.5272C94.8696 117.358 93.2799 116.699 92.1078 115.527C90.9357 114.355 90.2772 112.765 90.2772 111.108" stroke="#F5F0E4" stroke-width="2" stroke-linecap="round" stroke-linejoin="round"/>
</g>
</g>
<defs>
<clipPath id="clip0_255_30">
<rect width="50" height="50" fill="white" transform="translate(75.6938 75.6909)"/>
</clipPath>
</defs>
</svg>
