<svg width="201" height="201" viewBox="0 0 201 201" fill="none" xmlns="http://www.w3.org/2000/svg">
<circle cx="100.339" cy="100.471" r="99.9169" fill="#C5AC6B"/>
<circle cx="100.339" cy="100.015" r="47.7542" fill="#F5F0E4"/>
<path d="M100.339 97.0208C106.463 87.9567 100.339 75.5856 97.2765 72.5234C97.2765 81.8263 91.8473 87.0412 88.09 90.8964C84.3358 94.7548 81.9657 100.818 81.9657 106.207C81.9657 111.08 83.9014 115.753 87.347 119.199C90.7926 122.645 95.4659 124.58 100.339 124.58C105.212 124.58 109.885 122.645 113.33 119.199C116.776 115.753 118.712 111.08 118.712 106.207C118.712 101.516 115.478 94.1423 112.587 90.8964C107.118 100.083 104.041 100.083 100.339 97.0208Z" fill="#E36B5B" stroke="#E36B5B" stroke-width="2" stroke-linecap="round" stroke-linejoin="round"/>
</svg>
