<svg width="93" height="93" viewBox="0 0 93 93" fill="none" xmlns="http://www.w3.org/2000/svg">
<path fill-rule="evenodd" clip-rule="evenodd" d="M46.5 84.2812C53.1326 84.291 59.6499 82.5464 65.3906 79.2244V66.8438C65.3906 63.3752 64.0128 60.0487 61.5601 57.5961C59.1075 55.1435 55.781 53.7656 52.3125 53.7656H40.6875C37.219 53.7656 33.8925 55.1435 31.4399 57.5961C28.9872 60.0487 27.6094 63.3752 27.6094 66.8438V79.2244C33.3501 82.5464 39.8674 84.291 46.5 84.2812ZM74.1094 66.8438V72.2901C79.1355 66.9095 82.4799 60.1776 83.7314 52.9218C84.983 45.6661 84.0872 38.2027 81.1541 31.4493C78.2211 24.6958 73.3786 18.9465 67.222 14.9082C61.0653 10.8698 53.8629 8.7184 46.5 8.7184C39.1371 8.7184 31.9347 10.8698 25.778 14.9082C19.6214 18.9465 14.7789 24.6958 11.8459 31.4493C8.91282 38.2027 8.01701 45.6661 9.26858 52.9218C10.5201 60.1776 13.8645 66.9095 18.8906 72.2901V66.8438C18.8889 62.3496 20.2764 57.9647 22.8631 54.2896C25.4498 50.6145 29.1093 47.8288 33.3405 46.314C31.1456 43.7894 29.7233 40.6868 29.2431 37.3761C28.7629 34.0655 29.2451 30.6866 30.6323 27.6424C32.0195 24.5983 34.253 22.0174 37.0665 20.2076C39.88 18.3979 43.1547 17.4356 46.5 17.4356C49.8453 17.4356 53.12 18.3979 55.9335 20.2076C58.747 22.0174 60.9805 24.5983 62.3677 27.6424C63.7549 30.6866 64.2371 34.0655 63.7569 37.3761C63.2767 40.6868 61.8544 43.7894 59.6595 46.314C63.8907 47.8288 67.5502 50.6145 70.1369 54.2896C72.7236 57.9647 74.1111 62.3496 74.1094 66.8438ZM46.5 93C58.8326 93 70.66 88.1009 79.3805 79.3805C88.1009 70.66 93 58.8326 93 46.5C93 34.1674 88.1009 22.34 79.3805 13.6195C70.66 4.89909 58.8326 0 46.5 0C34.1674 0 22.34 4.89909 13.6195 13.6195C4.89909 22.34 0 34.1674 0 46.5C0 58.8326 4.89909 70.66 13.6195 79.3805C22.34 88.1009 34.1674 93 46.5 93ZM55.2188 34.875C55.2187 37.1874 54.3002 39.405 52.6651 41.0401C51.03 42.6752 48.8124 43.5938 46.5 43.5938C44.1876 43.5938 41.97 42.6752 40.3349 41.0401C38.6998 39.405 37.7812 37.1874 37.7812 34.875C37.7812 32.5626 38.6998 30.345 40.3349 28.7099C41.97 27.0748 44.1876 26.1563 46.5 26.1562C48.8124 26.1562 51.03 27.0748 52.6651 28.7099C54.3002 30.345 55.2188 32.5626 55.2188 34.875Z" fill="#505166"/>
</svg>
