<svg width="37" height="43" viewBox="0 0 37 43" fill="none" xmlns="http://www.w3.org/2000/svg">
<path d="M18.5 9.5C28.7173 9.5 37 17.7827 37 28C37 31.6424 35.9465 35.0383 34.1289 37.9014C33.0841 37.0341 32.3398 35.8129 30.4971 36.0273C28.6889 36.2378 27.6953 37.5265 26.209 38.0166C23.8311 38.8005 20.9754 35.1384 18.7461 35.873C15.3279 37.0003 15.1678 41.5136 12.9814 42.3789C10.416 43.3937 8.07872 41.6116 5.61719 41.2754C2.15332 37.9133 0 33.2085 0 28C0 17.7827 8.28273 9.5 18.5 9.5Z" fill="#E36B5B"/>
<circle cx="12.5" cy="16.5" r="2.5" fill="#FFD8D8"/>
<path d="M17 14.5C17.5 15.5 18.2642 17 21.5 18.0971M21.5 18.0971C23.75 18.86 25.5 18.3514 27 18.0971M21.5 18.0971C21.75 14.5371 22.8686 8.63139 26 5.5C28 3.5 31 2.5 34 2" stroke="#7A5A43" stroke-width="3" stroke-linecap="round"/>
</svg>
