<svg width="150" height="113" viewBox="0 0 150 113" fill="none" xmlns="http://www.w3.org/2000/svg">
<rect x="77" y="3.47388" width="5.00419" height="12.5941" rx="2.5021" transform="rotate(-43.9631 77 3.47388)" fill="#77A974"/>
<rect x="53.5322" y="5.91772" width="5.00419" height="12.5941" rx="2.5021" transform="rotate(42.0523 53.5322 5.91772)" fill="#7A5A43"/>
<rect x="55.9851" y="42.9209" width="5.00419" height="10.7763" rx="2.5021" transform="rotate(137.309 55.9851 42.9209)" fill="#F5F0E4"/>
<rect x="79.7437" y="27.1365" width="5.00419" height="10.7995" rx="2.5021" transform="rotate(46.9979 79.7437 27.1365)" fill="#F5F0E4"/>
<rect x="114.411" y="40.0281" width="5.00419" height="10.7995" rx="2.5021" transform="rotate(129.615 114.411 40.0281)" fill="#7A5A43"/>
<rect x="96.9189" y="78.8264" width="5.00419" height="10.7995" rx="2.5021" transform="rotate(46.1822 96.9189 78.8264)" fill="#7A5A43"/>
<rect x="73.7925" y="101" width="5.00419" height="10.7995" rx="2.5021" transform="rotate(46.1822 73.7925 101)" fill="#77A974"/>
<rect x="45.3384" y="90.2227" width="5.00419" height="10.7995" rx="2.5021" transform="rotate(131.244 45.3384 90.2227)" fill="#E36B5B"/>
<rect x="10.7522" y="92" width="5.00419" height="9.91346" rx="2.5021" transform="rotate(42.9313 10.7522 92)" fill="#F5F0E4"/>
<rect x="6.7522" y="66" width="5.00419" height="9.91346" rx="2.5021" transform="rotate(42.9313 6.7522 66)" fill="#7A5A43"/>
<rect x="123.384" y="106.322" width="5.00419" height="9.91769" rx="2.5021" transform="rotate(137.583 123.384 106.322)" fill="#F5F0E4"/>
<rect x="146.585" y="84" width="5.00419" height="9.91769" rx="2.5021" transform="rotate(49.8904 146.585 84)" fill="#7A5A43"/>
</svg>
