<svg width="216" height="122" viewBox="0 0 216 122" fill="none" xmlns="http://www.w3.org/2000/svg">
<path d="M39.3022 1.42693C38.2349 1 37.808 2.49426 36.9541 2.49426C36.3849 1.99617 35.5025 1 34.8194 1C33.9656 1 33.5386 2.92119 32.8982 2.92119C32.2578 2.92119 30.977 2.06733 30.3366 2.49426C29.6963 2.92119 30.1232 5.05585 29.6963 5.26932C29.2693 5.48278 28.202 4.84239 27.5616 5.48278C26.9212 6.12318 28.202 7.40398 27.7751 8.04438C27.3481 8.68477 25.8539 8.68477 25.4269 9.53864C25 10.3925 26.4943 11.8868 26.4943 12.3137C26.4943 12.7406 25 13.808 25 14.6618C25 15.5157 26.9212 15.9426 27.1347 16.583C27.3481 17.2234 25.6404 18.9311 26.0674 19.5715C26.4943 20.2119 27.9885 20.4254 28.202 20.8523C28.4155 21.2793 28.6289 22.987 29.0559 23.4139C29.4828 23.8409 31.1905 22.987 31.6175 22.987C32.0444 22.987 32.8983 24.6947 33.5387 24.9082C34.1791 25.1217 35.2464 23.4139 35.8868 23.4139C36.5272 23.4139 38.0214 25.3351 38.6618 25.3351C39.3022 25.3351 40.1561 23.2005 40.583 22.987C41.01 22.7735 42.9312 24.0543 43.5716 23.8409C44.212 23.6274 44.212 21.7062 44.4254 21.2793C44.6389 20.8523 46.3466 20.8523 46.7736 20.4254C47.2005 19.9985 46.1332 18.0773 46.3466 17.8638C46.5601 17.6503 47.8409 17.2234 48.4813 16.583C49.1217 15.9426 47.4139 13.5945 47.4139 13.1676C47.4139 12.7406 48.9082 11.6733 49.1217 10.8194C49.3351 9.96557 47.4139 9.53864 47.4139 9.11171C47.4139 8.68477 47.6274 7.40398 47.4139 6.55011C47.2005 5.69625 45.4928 6.12318 44.8524 5.90972C44.212 5.69625 44.6389 3.98852 43.5716 3.34813C42.5042 2.70773 41.6504 3.56159 41.2234 3.34813C40.7965 3.13466 40.3696 1.85386 39.3022 1.42693Z" fill="#F5F0E4" stroke="#C5AC6B" stroke-width="0.5" stroke-linecap="round"/>
<path d="M35.0914 6.005C36.8799 5.26659 39.0355 5.29924 40.7677 6.5694L40.9691 6.72161C44.9976 9.83098 44.6642 14.4256 43.0838 16.9359L42.9249 17.1763C42.0265 18.4598 40.6018 19.4052 39.0974 19.9559C37.6852 20.4727 36.1047 20.6778 34.6671 20.4246L34.3816 20.3681C32.6777 19.9894 31.4984 19.2996 30.6955 18.5011C29.9959 17.8053 29.6213 17.0663 29.4185 16.4719L29.3418 16.2267L29.3182 16.1237C29.2257 15.6075 29.5372 15.0949 30.0523 14.9477C30.6016 14.7908 31.1743 15.109 31.3313 15.6583L31.3764 15.8031C31.4963 16.1552 31.7214 16.6031 32.155 17.0342C32.6471 17.5236 33.4603 18.0438 34.8301 18.3482L35.0301 18.388C36.0414 18.5649 37.2469 18.4298 38.3862 18.0128C39.6034 17.5673 40.6338 16.8409 41.2297 15.9896L41.3415 15.8213C42.4329 14.0846 42.7293 10.8076 39.8436 8.46866L39.5439 8.23833C38.5011 7.47365 37.1347 7.39975 35.8814 7.91707C34.6252 8.4357 33.5993 9.50595 33.2615 10.8569C32.9484 12.1097 33.5088 13.3376 34.4085 14.0183C34.8509 14.353 35.3318 14.5197 35.7723 14.518C36.1937 14.5164 36.6442 14.3621 37.0762 13.9301L37.1483 13.8486C37.2995 13.6515 37.3354 13.4077 37.2581 13.0983C37.1708 12.7493 36.9705 12.4711 36.8392 12.3494L36.788 12.3069L36.7038 12.2423C36.3069 11.8997 36.2262 11.3051 36.5334 10.8663C36.8406 10.4276 37.4267 10.3001 37.8844 10.5558L37.974 10.6124L38.0831 10.6932C38.6235 11.1191 39.075 11.8362 39.2651 12.5965C39.4656 13.3989 39.4054 14.4018 38.6913 15.2299L38.5391 15.3929C37.7333 16.1987 36.7645 16.5833 35.7797 16.587C34.8143 16.5906 33.9021 16.2294 33.1598 15.6677C31.6901 14.5555 30.7133 12.5176 31.2538 10.3551C31.7699 8.29072 33.3058 6.74229 35.0914 6.005Z" fill="#E36B5B"/>
<path d="M80.7083 22.9421C80.6194 21.6314 78.8689 21.9317 78.446 21.0523C78.677 20.2193 79.266 18.8171 78.9277 18.1136C78.5048 17.2341 76.3146 17.746 75.9974 17.0864C75.6802 16.4268 75.9253 14.6847 75.1684 14.2366C74.4115 13.7885 72.4243 15.2855 71.993 14.9515C71.5617 14.6175 71.6926 13.201 70.7159 12.8586C69.7391 12.5162 69.0543 14.4698 68.1833 14.3472C67.3122 14.2246 66.5721 12.6856 65.4812 12.6688C64.3903 12.652 63.5914 14.9311 63.1517 15.1426C62.712 15.3541 60.8726 14.3437 59.9931 14.7666C59.1137 15.1895 59.6255 17.3797 59.0717 17.9168C58.5178 18.4538 55.9131 17.5407 55.465 18.2977C55.0169 19.0546 55.5371 20.6993 55.2031 21.1306C54.8691 21.5619 53.216 22.6276 52.9877 23.2788C52.7594 23.93 54.4847 25.266 54.6962 25.7057C54.9076 26.1454 53.5716 27.8707 53.669 28.636C53.7663 29.4013 56.0538 29.6548 56.371 30.3143C56.6882 30.9739 55.4495 33.4645 55.7667 34.1241C56.0839 34.7837 58.7054 34.6058 59.1367 34.9398C59.568 35.2738 59.2004 37.8869 59.7375 38.4408C60.2745 38.9946 62.2533 38.0431 62.7987 38.0515C63.3442 38.0599 64.19 39.8188 64.8412 40.047C65.4923 40.2753 66.9424 38.2244 67.268 38.3386C67.5936 38.4527 68.6677 39.5604 69.6445 39.9028C70.6212 40.2452 72.1939 37.3233 72.6336 37.1119C73.0733 36.9004 74.9127 37.9108 75.8979 37.7077C76.8831 37.5047 76.3712 35.3145 76.811 35.103C77.2507 34.8916 78.6756 34.4771 79.4493 33.8343C80.223 33.1915 78.9374 31.6441 78.8401 30.8788C78.7428 30.1135 80.7131 29.7074 80.8441 28.2909C80.975 26.8744 79.6727 26.4179 79.6811 25.8724C79.6895 25.327 80.7972 24.2529 80.7083 22.9421Z" fill="#F5F0E4" stroke="#C5AC6B" stroke-width="0.5" stroke-linecap="round"/>
<path d="M73.809 20.9832C75.4246 22.432 76.4314 24.6185 75.9923 26.9716L75.9365 27.2503C74.7478 32.8524 69.9309 34.7492 66.6252 34.372L66.3051 34.3279C64.5756 34.0443 62.9226 33.0639 61.6261 31.8025C60.4092 30.6186 59.4309 29.1143 58.9879 27.538L58.9067 27.2213C58.4584 25.3028 58.5851 23.7757 58.9995 22.5829C59.3608 21.5432 59.922 20.81 60.4207 20.3196L60.63 20.124L60.7127 20.0581C61.1378 19.7511 61.7348 19.8097 62.0906 20.2101C62.4463 20.6104 62.4346 21.2101 62.0801 21.5962L62.0045 21.6706L61.8725 21.7939C61.5562 22.1046 61.1919 22.5765 60.9537 23.2618C60.6831 24.0407 60.5511 25.1652 60.9216 26.7508L60.9813 26.9822C61.3082 28.1412 62.0597 29.3384 63.0684 30.3198C64.1458 31.3681 65.4309 32.0876 66.6399 32.2859L66.8747 32.3187C69.3052 32.5944 72.9871 31.1924 73.9147 26.8101L73.9579 26.592C74.2402 25.0791 73.6124 23.5854 72.4279 22.5232C71.2411 21.4589 69.5841 20.9141 67.974 21.246C66.463 21.5575 65.4372 22.7948 65.1715 24.1085C65.0405 24.7564 65.1071 25.3686 65.3434 25.8553C65.5713 26.3246 65.9844 26.7386 66.6789 26.982L66.8219 27.0216C67.1516 27.0891 67.4644 26.9846 67.7696 26.731C68.1539 26.4117 68.3677 25.9753 68.4023 25.7654C68.4947 25.2016 69.0271 24.8189 69.5909 24.9113C70.1546 25.0038 70.5363 25.5359 70.444 26.0996C70.3178 26.8693 69.803 27.7313 69.0916 28.3223C68.3911 28.9043 67.3765 29.3165 66.2263 29.006L65.9945 28.9343C64.8012 28.516 63.956 27.7348 63.482 26.7587C63.0165 25.7998 62.9381 24.7153 63.1436 23.6989C63.5509 21.6842 65.1269 19.7206 67.5564 19.2198C69.8869 18.7395 72.1957 19.5365 73.809 20.9832Z" fill="#E36B5B"/>
<path d="M32.9106 28.3521C31.3178 28.7518 32.075 30.8387 31.0868 31.5538C30.0108 31.454 28.1554 31.04 27.3648 31.612C26.3766 32.327 27.4913 34.9081 26.7501 35.4444C26.0089 35.9807 23.8115 36.065 23.4279 37.0954C23.0442 38.1259 25.326 40.2389 25.0106 40.8435C24.6952 41.4481 22.9236 41.6008 22.7188 42.8782C22.5139 44.1557 25.0688 44.5655 25.111 45.6642C25.1531 46.7629 23.4237 48.0142 23.6446 49.36C23.8656 50.7058 26.8463 51.1839 27.2039 51.678C27.5614 52.1721 26.7258 54.6588 27.4408 55.647C28.1559 56.6352 30.737 55.5205 31.5203 56.0829C32.3037 56.6453 31.7573 60.0519 32.7877 60.4356C33.8181 60.8192 35.7263 59.8149 36.3309 60.1303C36.9355 60.4457 38.6126 62.2434 39.4643 62.38C40.3159 62.5166 41.5774 60.0982 42.0715 59.7407C42.5656 59.3832 44.984 60.6446 45.9039 60.3554C46.8238 60.0662 46.629 57.1959 47.3702 56.6596C48.1114 56.1233 51.4497 57.0955 52.1909 56.5592C52.9321 56.0229 52.1327 52.8373 52.4481 52.2327C52.7634 51.6281 56.0595 51.5016 56.622 50.7182C57.1844 49.9349 55.5755 47.7113 55.4651 47.0385C55.3546 46.3656 57.3311 44.9355 57.4677 44.0838C57.6043 43.2322 54.7601 41.9024 54.8284 41.4766C54.8967 41.0508 56.0215 39.4841 56.2264 38.2066C56.4313 36.9291 52.4885 35.6416 52.1309 35.1475C51.7734 34.6533 52.609 32.1667 52.141 30.9997C51.673 29.8327 49.092 30.9474 48.7344 30.4533C48.3769 29.9592 47.5514 28.298 46.5893 27.4886C45.6272 26.6791 44.0082 28.6033 43.0883 28.8925C42.1683 29.1818 41.2323 26.8477 39.4607 27.0004C37.6891 27.153 37.4159 28.8563 36.7431 28.9668C36.0702 29.0772 34.5035 27.9524 32.9106 28.3521Z" fill="#F5F0E4" stroke="#C5AC6B" stroke-width="0.5" stroke-linecap="round"/>
<path d="M32.2481 37.4092C33.6346 35.1624 36.0257 33.5017 38.911 33.5201L39.2582 33.5266C46.2574 33.7432 49.5716 39.1204 49.8328 43.1607L49.849 43.553C49.8822 45.6778 49.0661 47.8783 47.8227 49.7211C46.656 51.4502 45.0547 52.9515 43.2625 53.822L42.9017 53.9875C40.6799 54.947 38.8226 55.1203 37.3174 54.8832C36.0046 54.6763 35.0147 54.1664 34.3271 53.6801L34.0505 53.4736L33.971 53.404C33.5936 53.04 33.5454 52.4421 33.8764 52.0209C34.2295 51.5718 34.88 51.4939 35.3291 51.8469L35.5208 51.99C35.9992 52.3287 36.6969 52.6905 37.639 52.8391C38.7112 53.008 40.1732 52.9122 42.0811 52.0882L42.3627 51.9592C43.7649 51.2768 45.1038 50.0517 46.108 48.5634C47.1803 46.9741 47.8053 45.183 47.7804 43.5859L47.7678 43.279C47.5618 40.118 44.9357 35.7701 39.1832 35.5943L38.8975 35.589C36.867 35.5761 35.0918 36.7418 34.0094 38.4957C32.9254 40.2524 32.6053 42.4973 33.4044 44.49C34.1659 46.3887 36.0171 47.4284 37.7816 47.4662C38.6545 47.4848 39.4499 47.2551 40.0493 46.818C40.6332 46.3921 41.0865 45.7311 41.2427 44.7574L41.2575 44.6436C41.3089 44.0813 41.0573 43.6139 40.6041 43.2326C40.0852 42.7961 39.4417 42.602 39.105 42.6073C38.5338 42.6162 38.0638 42.1603 38.0548 41.589C38.0459 41.0177 38.5014 40.5472 39.0727 40.5383C39.9767 40.5241 41.0919 40.9395 41.936 41.6496C42.788 42.3665 43.4843 43.4958 43.3061 44.9437L43.2859 45.0847C43.046 46.5801 42.3077 47.7317 41.2687 48.4895C40.2451 49.2359 38.9863 49.5617 37.7373 49.535C35.2578 49.482 32.5948 48.0291 31.4842 45.26C30.4114 42.5847 30.8633 39.6534 32.2481 37.4092Z" fill="#E36B5B"/>
<path d="M215.5 38.0078C203.392 85.7548 158.516 122.008 107.001 122.008C55.1534 122.008 12.2794 86.2242 0.5 38.0078C4.79804 39.8016 9.22873 41.4905 13.7832 43.0693C14.5475 44.048 15.4679 44.9327 16.5693 45.6953L17.1826 46.1045C20.381 48.1644 25.5155 50.4152 31.917 52.6514C38.7216 55.0283 46.882 57.3634 55.5068 59.4199C72.7716 63.5365 91.8112 66.5176 105.5 66.5176C122.654 66.5176 145.204 63.4061 164.226 59.29C173.733 57.2327 182.333 54.9298 188.915 52.6504C192.208 51.5102 194.975 50.3824 197.092 49.3037C199.246 48.2058 200.597 47.2209 201.2 46.417L201.487 46.0254C202.21 45.0129 202.934 43.8119 203.603 42.4463C207.696 41.0387 211.667 39.557 215.5 38.0078Z" fill="#C5AC6B"/>
</svg>
