<svg width="96" height="83" viewBox="0 0 96 83" fill="none" xmlns="http://www.w3.org/2000/svg">
<path d="M46.8175 20.6087C43.2354 19.5739 37.3992 17.1705 28.1726 18.3501C18.9461 19.5297 13.348 25.5002 13.348 25.5002C12.2936 25.2469 10.7792 25.4772 10.1337 26.8616C9.22069 28.8194 10.5553 30.3157 11.6535 31.1456C11.0816 34.2159 11.4643 42.2124 17.5703 49.6361C23.6762 57.0597 33.9688 61.5732 38.3518 62.902C39.1794 64.4797 40.5265 67.4914 42.3757 68.3537C44.6871 69.4315 49.5226 68.0099 51.8962 67.5494C53.701 67.1992 57.0067 65.642 57.9597 65.6097C58.9127 65.5774 63.4826 68.8525 67.408 70.4922C72.3147 72.5419 75.7617 73.1959 77.6278 71.2058C79.4938 69.2157 78.594 58.0701 79.7808 55.5249C80.9677 52.9797 88.4829 42.8979 87.3884 40.7191C86.2939 38.5402 80.8459 38.6758 77.3412 39.1326C73.3464 39.6533 69.2027 40.6608 66.8976 41.4133C67.7906 38.4927 68.8269 33.4937 66.1304 27.4693C63.595 21.8046 59.2284 16.6234 56.3491 15.7575C54.0458 15.0648 48.937 18.5778 46.8175 20.6087Z" fill="#C5AC6B"/>
<path d="M55.4742 19.8558C55.6331 19.6827 55.9027 19.6711 56.0759 19.8301C56.2487 19.9889 56.2605 20.2579 56.1019 20.431L52.5647 24.282C53.9959 25.3021 55.3897 26.493 56.7096 27.8104L59.2472 25.5603C59.423 25.4045 59.6924 25.4209 59.8483 25.5967C60.0041 25.7725 59.9877 26.0419 59.8119 26.1978L57.3059 28.4195C58.5645 29.7344 59.7493 31.1627 60.8267 32.6647L63.0426 31.2559L63.1196 31.2167C63.3045 31.1461 63.5199 31.2126 63.6303 31.386C63.7564 31.5843 63.6977 31.8472 63.4995 31.9734L61.3161 33.3615C62.1196 34.5347 62.8564 35.7483 63.5114 36.9841L65.416 35.8694C65.6187 35.7506 65.8791 35.8188 65.9979 36.0216C66.1167 36.2244 66.0486 36.4848 65.8458 36.6035L63.9021 37.7413C65.035 40.0114 65.886 42.3473 66.3557 44.637C68.0041 44.4727 71.1105 44.2274 72.852 44.332C74.7187 44.4441 77.5768 44.8022 78.7691 44.9664C79.0019 44.9985 79.1645 45.213 79.1325 45.4458C79.1004 45.6786 78.8859 45.8412 78.6531 45.8092C77.4636 45.6453 74.6335 45.2916 72.8016 45.1815C71.1557 45.0826 68.1671 45.3127 66.5091 45.4761C66.735 46.8486 66.8186 48.2013 66.7357 49.5095C67.9596 49.5669 70.127 49.7753 71.6215 50.3003C73.2618 50.8766 75.6873 51.8041 76.694 52.1952L76.771 52.2348C76.9371 52.342 77.0113 52.5544 76.937 52.746C76.8519 52.965 76.6046 53.0737 76.3855 52.9886L74.0954 52.1142C73.1628 51.7632 72.1525 51.3898 71.3393 51.1041C69.9432 50.6136 67.8388 50.4114 66.6581 50.3582C66.5182 51.509 66.2428 52.62 65.812 53.6713L65.6901 53.9601C65.4778 54.4489 65.2451 54.9114 64.9945 55.3497C66.0671 55.6855 67.7029 56.2183 68.8884 56.7711L73.3777 58.8646L73.4518 58.9083C73.6107 59.0262 73.6705 59.2437 73.5836 59.4301C73.4967 59.6164 73.2916 59.7105 73.0992 59.6645L73.0181 59.6359L68.5287 57.5425C67.3189 56.9783 65.5928 56.426 64.5326 56.0963C63.4332 57.7547 62.0547 59.0136 60.5074 59.9673C61.8157 60.4882 63.9347 61.4206 65.9764 62.5891C68.2182 63.8721 69.9019 64.9797 70.6935 65.5333L70.9768 65.7361L71.0409 65.7934C71.1741 65.9399 71.1907 66.1642 71.0693 66.3303C70.9479 66.4963 70.7291 66.5489 70.5491 66.4665L70.475 66.4228L70.2024 66.2287C69.4366 65.6933 67.7763 64.6003 65.5538 63.3283C63.1618 61.9593 60.6551 60.9184 59.5473 60.51C58.0028 61.3098 56.3271 61.8444 54.6186 62.2045L54.8469 64.3009L54.8481 64.3868C54.8297 64.5838 54.6748 64.7477 54.4704 64.77C54.266 64.7923 54.0796 64.6655 54.0192 64.4771L54.0009 64.3924L53.7809 62.3687C52.4762 62.6005 51.1583 62.7393 49.869 62.8224L50.2676 65.4348L50.2722 65.5213C50.2621 65.7188 50.1144 65.8887 49.9112 65.9197C49.708 65.9507 49.5164 65.8324 49.4479 65.6468L49.4263 65.5634L49.0155 62.8692C47.5732 62.9372 46.1749 62.9458 44.8839 62.9445L45.5634 65.7924C45.6177 66.0208 45.4766 66.2501 45.2483 66.3048C45.0197 66.3593 44.7896 66.218 44.7351 65.9894L44.0086 62.9435C43.2845 62.9421 42.6029 62.9418 41.972 62.9531C41.7373 62.9571 41.5438 62.7705 41.5393 62.5358C41.5352 62.3009 41.7221 62.1066 41.957 62.1024C42.6947 62.0892 43.4993 62.0915 44.3464 62.0932L45.5363 62.0942C46.7517 62.0914 48.039 62.0737 49.3558 62.0017L49.9419 61.966C51.3143 61.8736 52.7075 61.7165 54.0726 61.4501L54.762 61.3048C56.3631 60.9448 57.9083 60.4239 59.3187 59.6707L59.6609 59.4818C61.3599 58.5131 62.8505 57.187 63.9914 55.3689L64.2738 54.8972C64.4563 54.5758 64.6286 54.2396 64.7902 53.8881L65.0246 53.3481C65.4141 52.3974 65.6708 51.3883 65.8052 50.3347L65.8549 49.8801C65.9777 48.5684 65.9188 47.1934 65.6991 45.7835L65.5948 45.1773C65.1681 42.8928 64.3352 40.5363 63.1956 38.2317L62.9637 37.7714C62.3046 36.4884 61.5527 35.2257 60.7261 34.0053L60.3672 33.4849C59.3172 31.9884 58.1576 30.5623 56.9229 29.2487L56.389 28.6925C55.084 27.3612 53.7048 26.1592 52.2916 25.1312L51.6842 24.7013C50.7274 24.0438 49.7588 23.4687 48.7904 22.9896L48.3752 22.7905L48.3011 22.7468C48.1419 22.6289 48.0824 22.4115 48.1693 22.225C48.2687 22.012 48.5218 21.9199 48.7348 22.0192L49.167 22.2271C50.0715 22.6745 50.9718 23.2 51.8594 23.7926L55.4742 19.8558ZM33.8729 26.8894C34.0779 26.872 34.2616 27.0029 34.3174 27.1929L34.3331 27.2773L34.3496 27.5289C34.4153 28.8393 34.2105 30.9412 33.71 33.1208C33.2429 35.1553 32.5066 37.3091 31.4544 38.9807C33.4867 39.0163 36.3116 39.3124 38.8464 39.7893C39.7456 39.9585 40.6145 40.1518 41.4029 40.3661C41.4319 39.6003 41.4744 38.714 40.8936 37.7709L40.6029 37.2988L41.1348 37.1396C41.563 37.0116 42.2585 36.7332 42.9195 36.3231C43.5889 35.9077 44.1687 35.3905 44.4409 34.8068C44.6834 34.2868 44.5686 33.551 44.2218 32.7496C43.8845 31.9703 43.3754 31.2395 43.0128 30.8112L42.5748 30.2933L43.2313 30.1244C43.7039 30.0025 45.0569 29.4449 46.3482 28.2426C46.8408 27.7839 46.9048 27.025 46.6635 26.1071C46.4278 25.2104 45.9334 24.3089 45.5493 23.7571C45.4152 23.5643 45.4631 23.2991 45.6558 23.1649C45.8487 23.0306 46.1142 23.0778 46.2484 23.2706C46.6707 23.8773 47.2178 24.8702 47.4861 25.8909C47.7488 26.8904 47.7794 28.0724 46.9282 28.8651C45.8755 29.8453 44.7751 30.4414 44.0368 30.743C44.3691 31.2012 44.7324 31.7875 45.0023 32.4111C45.3703 33.2614 45.6171 34.2982 45.2122 35.1665C44.837 35.9711 44.0921 36.5968 43.3684 37.0459C42.8469 37.3695 42.3073 37.6174 41.8626 37.7872C42.3625 38.888 42.2742 39.9635 42.2481 40.6144C42.4207 40.6694 42.5878 40.7253 42.7484 40.7826C43.2889 40.9752 43.7691 41.1848 44.1551 41.4119C44.5324 41.634 44.8622 41.8976 45.049 42.2167C45.6854 43.3043 45.465 44.8134 44.8115 46.3445C44.1878 47.8057 43.1257 49.3974 41.7895 50.896L41.5184 51.1942C39.7644 53.0932 38.3515 54.1189 36.8559 54.249C36.2823 54.2989 35.7165 54.2139 35.1366 54.0186C35.036 54.101 34.9168 54.2021 34.7808 54.3194C34.6125 54.4646 34.4219 54.6293 34.2229 54.7902C33.884 55.0639 33.4861 55.3565 33.0971 55.5307L32.9313 55.5974C32.5591 55.7302 32.0892 55.8407 31.6803 55.9182C31.2772 55.9946 30.894 56.0466 30.6967 56.0511C30.4619 56.0562 30.2668 55.8702 30.2615 55.6353C30.2562 55.4004 30.443 55.2057 30.678 55.2005C30.8009 55.1977 31.1258 55.1573 31.5217 55.0822C31.9122 55.0082 32.3333 54.9079 32.6454 54.7964L32.7576 54.7506C33.0281 54.6283 33.3508 54.4004 33.688 54.128C33.8748 53.977 34.0555 53.821 34.2248 53.675C34.2357 53.6656 34.2466 53.6556 34.2574 53.6462C33.7883 53.4106 33.3037 53.1143 32.7944 52.7659L32.1445 52.3051C29.4078 50.3038 26.3389 46.5327 24.942 44.6337C23.9089 45.1961 22.9678 45.6177 22.2555 45.9092C22.038 45.998 21.7892 45.8934 21.7003 45.676C21.6115 45.4586 21.7161 45.2098 21.9335 45.1208C22.697 44.8084 23.7305 44.344 24.8532 43.7111L25.366 43.4137C25.8837 43.1045 26.4135 42.7608 26.9389 42.3809L27.4359 42.0093C27.9303 41.627 28.4157 41.2125 28.8776 40.7641L29.2547 40.3842C29.6263 39.9967 29.9792 39.5861 30.3053 39.1519L30.5267 38.8443C31.612 37.2603 32.3898 35.0653 32.8801 32.93C33.3702 30.7957 33.5596 28.7799 33.5002 27.5785L33.485 27.3495L33.486 27.2628C33.5093 27.0664 33.6682 26.9068 33.8729 26.8894ZM51.4109 42.2827C51.5131 42.0635 51.5582 41.7507 51.5364 41.3527C51.515 40.9601 51.4308 40.5187 51.3079 40.0668C51.062 39.1625 50.6739 38.264 50.3938 37.7184L50.1915 37.3242L50.5936 37.1385C51.0845 36.9111 51.8664 36.5063 52.603 36.0369C53.3577 35.5559 53.9969 35.0486 54.2719 34.6289C54.367 34.4838 54.4187 34.2581 54.3995 33.9365C54.3806 33.6191 54.2954 33.2505 54.1638 32.8628C53.9006 32.0877 53.4778 31.3033 53.1703 30.8222L53.5292 30.5934L53.8873 30.3642C54.2209 30.8862 54.6783 31.7326 54.9691 32.589C55.1145 33.0172 55.2241 33.4655 55.2492 33.8861C55.274 34.3024 55.2183 34.7365 54.9837 35.0947C54.5989 35.6821 53.8152 36.2729 53.0598 36.7543C52.4596 37.1368 51.8334 37.476 51.3405 37.7216C51.6089 38.2973 51.9171 39.064 52.1291 39.8436C52.2615 40.3303 52.3604 40.834 52.3863 41.306C52.4118 41.7728 52.3677 42.2445 52.1822 42.6424C51.8589 43.3357 51.2216 44.0461 50.5954 44.6352C50.1016 45.0997 49.5887 45.5099 49.1862 45.8067C49.4527 46.3175 49.7468 47.0084 49.9245 47.7337C50.1411 48.6181 50.2116 49.6592 49.7185 50.4667C49.2814 51.1823 48.6123 51.8444 47.9739 52.3731C47.4878 52.7756 47.0042 53.1128 46.6252 53.3518C46.8197 53.8355 47.0077 54.4777 47.0666 55.1468C47.1409 55.992 47.0159 56.9618 46.3366 57.674C45.1064 58.9636 43.2776 59.2376 42.5077 59.2202C42.2728 59.2149 42.0864 59.0199 42.0917 58.785C42.097 58.5501 42.2919 58.3637 42.5268 58.3689C43.1679 58.3834 44.7195 58.1363 45.7211 57.0862C46.1574 56.6286 46.2832 55.9546 46.2186 55.2209C46.1545 54.4934 45.9084 53.7868 45.7035 53.3677L45.5279 53.0089L45.875 52.8112C46.2316 52.608 46.8281 52.2171 47.4313 51.7175C48.0381 51.215 48.626 50.6235 48.9924 50.0236C49.3027 49.5156 49.3004 48.7614 49.0983 47.9363C48.9008 47.13 48.5367 46.3572 48.2655 45.8991L48.0632 45.5562L48.3909 45.3313C48.7823 45.0629 49.4124 44.5799 50.0122 44.0157C50.6207 43.4433 51.1587 42.8235 51.4109 42.2827ZM43.723 42.1458C43.4001 41.9559 42.9745 41.7671 42.4624 41.5846C41.4388 41.2198 40.1166 40.8943 38.6893 40.6258C35.9271 40.1061 32.8307 39.8095 30.8537 39.8303C30.5609 40.2075 30.2523 40.5672 29.9294 40.9079L38.7599 44.3663C38.9787 44.452 39.0864 44.699 39.0007 44.9178C38.9149 45.1365 38.6679 45.2442 38.4491 45.1586L29.2706 41.5635C28.8211 41.9856 28.3542 42.376 27.8823 42.7374L34.3711 47.9668L34.4326 48.0276C34.5586 48.1802 34.5648 48.4055 34.4358 48.5656C34.3068 48.7254 34.0855 48.7675 33.9097 48.677L33.8374 48.6295L27.1703 43.2573C26.6717 43.6061 26.1737 43.9243 25.6875 44.211C27.0939 46.1115 30.0542 49.7227 32.6471 51.6188L32.9733 51.8534C34.5711 52.9853 35.704 53.4946 36.7818 53.401C37.9312 53.301 39.152 52.5022 40.8936 50.6167L41.1549 50.3277C42.4451 48.8804 43.4505 47.3663 44.0293 46.01C44.6584 44.5359 44.7363 43.3669 44.3148 42.6465C44.2371 42.5136 44.0546 42.3409 43.723 42.1458ZM53.3636 60.9508C53.2014 61.1207 52.932 61.1267 52.762 60.9646C52.5919 60.8024 52.5852 60.5327 52.7474 60.3626L53.3636 60.9508ZM58.4379 45.5595C58.5401 45.3402 58.5852 45.0274 58.5635 44.6294C58.542 44.2368 58.4571 43.7951 58.3342 43.3432C58.0883 42.4391 57.701 41.5407 57.4208 40.9952L57.2186 40.601L57.6206 40.4153C58.1116 40.1879 58.8935 39.7831 59.63 39.3137C60.3848 38.8326 61.024 38.3254 61.299 37.9057C61.4277 37.7091 61.6917 37.6537 61.8883 37.7825C62.0847 37.9113 62.1393 38.175 62.0107 38.3715C61.626 38.9589 60.8423 39.5496 60.0869 40.0311C59.4867 40.4136 58.8604 40.7527 58.3676 40.9983C58.6359 41.574 58.9434 42.3405 59.1554 43.12C59.2879 43.6069 59.3875 44.1107 59.4133 44.5828C59.4388 45.0495 59.3948 45.5213 59.2092 45.9191C58.8859 46.6124 58.2487 47.3229 57.6225 47.912C57.1286 48.3765 56.6157 48.7867 56.2133 49.0834C56.4797 49.5943 56.7739 50.2852 56.9516 51.0105C57.1682 51.8949 57.2387 52.9359 56.7455 53.7435C56.3084 54.4591 55.6394 55.1211 55.0009 55.6499C54.5149 56.0524 54.0313 56.3896 53.6523 56.6286C53.8468 57.1123 54.0347 57.7546 54.0936 58.4236C54.1679 59.2687 54.0429 60.2386 53.3636 60.9508L52.7474 60.3626C53.1838 59.905 53.3102 59.2315 53.2456 58.4977C53.1816 57.7702 52.9354 57.0636 52.7306 56.6445L52.555 56.2856L52.902 56.088C53.2586 55.8847 53.8545 55.4934 54.4576 54.994C55.0644 54.4914 55.653 53.9003 56.0195 53.3004C56.3298 52.7924 56.3267 52.0378 56.1246 51.2127C55.9518 50.5075 55.6523 49.8277 55.3984 49.3619L55.2925 49.1759L55.0894 48.8327L55.418 48.608C55.8094 48.3396 56.4394 47.8567 57.0392 47.2925C57.6477 46.7201 58.1857 46.1003 58.4379 45.5595ZM16.2272 27.991L16.2966 28.0426L16.8145 28.5308C18.0575 29.736 19.507 31.3871 20.4725 32.9262C21.0201 33.7991 21.4405 34.6797 21.5494 35.4449C21.6045 35.8326 21.5841 36.22 21.4324 36.5669C21.2961 36.8785 21.0666 37.1275 20.754 37.3061L20.6146 37.3787C19.8612 37.733 19.0172 37.6192 18.2065 37.2901C17.3927 36.9598 16.5502 36.3886 15.7435 35.7244C14.3296 34.5601 12.5759 33.4868 11.5834 32.3154L11.1818 31.8356L11.1341 31.7647C11.0409 31.59 11.0805 31.368 11.239 31.2369C11.3975 31.1061 11.6222 31.1092 11.7762 31.2333L11.8378 31.2941L12.2348 31.7681C13.2133 32.9228 14.9277 33.9507 16.2844 35.0678C17.0609 35.7072 17.8271 36.2174 18.5267 36.5013C19.2293 36.7865 19.8036 36.8199 20.253 36.6084L20.3293 36.5688C20.4982 36.4731 20.5957 36.3556 20.6527 36.2253C20.7217 36.0674 20.7476 35.8517 20.7067 35.5646C20.6235 34.9799 20.2817 34.2223 19.752 33.378C18.8323 31.9119 17.4315 30.3144 16.2256 29.1448L15.7226 28.6718L15.6655 28.6075C15.5488 28.4476 15.5565 28.2222 15.695 28.0702C15.8335 27.9184 16.0572 27.8897 16.2272 27.991ZM53.3 30.2352C53.498 30.1087 53.7607 30.1663 53.8873 30.3642L53.1703 30.8222C53.044 30.6242 53.1022 30.3618 53.3 30.2352Z" fill="#F5F0E4"/>
<path d="M25.1097 26.9664C25.4077 26.3274 25.1312 25.5678 24.4922 25.2699C23.8532 24.9719 23.0937 25.2484 22.7957 25.8874C22.4978 26.5263 22.7742 27.2859 23.4132 27.5839L23.0535 28.3552C21.9885 27.8586 21.5278 26.5927 22.0244 25.5277C22.521 24.4627 23.7869 24.0019 24.8519 24.4986C25.9169 24.9952 26.3776 26.2611 25.881 27.3261C25.3844 28.391 24.1185 28.8518 23.0535 28.3552L23.4132 27.5839C24.0522 27.8818 24.8117 27.6054 25.1097 26.9664Z" fill="#F5F0E4"/>
</svg>
