<svg width="59" height="52" viewBox="0 0 59 52" fill="none" xmlns="http://www.w3.org/2000/svg">
<path d="M39.8399 1.30867C43.6783 0.73624 47.3744 3.00065 48.6065 6.68074L57.9551 34.6075C59.5247 39.2965 56.5066 44.2616 51.6387 45.043C49.898 44.0602 48.2499 43.0085 47.918 42.9766C45.5376 42.7542 45.195 39.9888 42.4971 40.3028C40.6893 40.5135 39.6961 41.8019 38.21 42.2921C35.8319 43.0763 32.9756 39.4133 30.7461 40.1485C27.3279 41.276 27.1681 45.7894 24.9815 46.6544C21.483 48.0381 18.4097 44.2166 14.8653 45.961C12.3064 47.2205 13.1096 49.1131 13.4219 50.7462L11.0733 51.0968C6.15246 51.8308 1.76192 47.9432 1.89555 42.9698L2.68754 13.5303C2.79202 9.65085 5.66549 6.40568 9.50395 5.83308L39.8399 1.30867Z" fill="#F9E2AA"/>
<path d="M40.2546 1.24635C43.8531 0.709752 47.3182 2.83323 48.4732 6.28341L50.4116 12.074C48.4803 13.7909 46.0531 15.5474 43.575 15.917C39.4024 16.5394 38.9875 13.7577 33.8876 14.5184C28.7878 15.2791 30.6141 21.1679 26.4415 21.7903C22.2689 22.4127 18.4498 15.8733 16.0626 15.7555C12.7204 15.5905 12.4228 16.7723 9.77936 18.1145C8.0425 18.9964 4.74928 18.8736 2.5493 18.6126L2.69789 13.1115C2.7957 9.47442 5.49025 6.43214 9.08875 5.89519L40.2546 1.24635Z" fill="#7A5A43"/>
<rect x="9.46167" y="9.6311" width="24.375" height="0.9375" rx="0.46875" transform="rotate(-8.48396 9.46167 9.6311)" fill="white"/>
<rect x="37.2791" y="5.48163" width="3.75" height="0.9375" rx="0.46875" transform="rotate(-8.48396 37.2791 5.48163)" fill="white"/>
</svg>
