<svg width="220" height="157" viewBox="0 0 220 157" fill="none" xmlns="http://www.w3.org/2000/svg">
<path d="M205.29 34.2834C203.958 34.3327 202.938 39.2205 202.391 41.5609C201.96 43.4111 201.791 44.4781 201.429 46.1987C201.049 48.0089 200.492 50.6022 200.492 50.6022L204.784 54.8455C206.914 54.1219 211.428 52.512 212.444 51.8607C213.715 51.0466 218.229 48.6785 218.192 46.7789C218.163 45.2593 215.277 45.2082 213.838 45.3726C214.142 43.9829 214.672 41.053 214.356 40.451C214.041 39.8491 212.769 40.5209 212.173 40.932C212.095 39.4231 212.158 36.5704 211.26 36.0968C210.362 35.6231 208.575 36.8409 208.016 37.6509C207.663 36.5078 206.623 34.2341 205.29 34.2834Z" fill="#E36B5B"/>
<path d="M199.719 49.3429C201.216 49.4002 203.009 50.6041 204.427 51.7986C204.427 51.7986 204.613 51.9404 204.693 52.0215C204.766 52.0962 204.591 51.9227 204.724 52.0534C205.861 53.0452 206.702 53.9733 206.856 54.1644L207.068 54.426C207.312 54.7724 207.423 54.9422 207.44 55.4229C207.502 57.1052 205.321 61.6105 204.777 62.5634C203.005 65.6711 204.154 68.4823 200.049 71.1618C195.53 74.1119 195.04 75.5901 194.203 76.7707C193.365 77.9516 192.495 81.6481 190.907 82.1985C189.319 82.7488 185.3 84.4979 184.243 85.0423C183.187 85.5866 182.141 87.1957 180.559 88.2783C178.976 89.3608 175.154 89.6172 174.103 90.6938C173.052 91.7703 172.746 92.9446 171.377 94.1313C170.009 95.3179 167.445 94.0697 166.186 95.5741C164.927 97.079 164.902 98.9048 162.659 99.543C160.103 100.27 158.142 99.9781 156.774 101.165C155.405 102.351 152.524 100.021 149.781 101.862C147.587 103.335 144.968 102.165 143.932 101.396C143.225 101.581 141.472 101.892 140.109 101.652C138.406 101.352 138.712 100.177 138.175 99.6512C137.698 99.1838 137.399 99.6373 136.436 98.9351C135.568 98.8433 133.757 98.555 133.519 97.1921C133.221 95.4853 133.93 95.5596 133.768 94.8245C133.607 94.0895 132.45 93.728 133.097 92.1206C133.615 90.8346 134.806 89.5077 135.337 89.005C135.233 87.7173 135.629 84.8704 138.037 83.7834C141.047 82.4247 141.631 83.683 143.36 83.1469C145.089 82.6108 144.579 80.6421 147.067 79.7071C149.554 78.7721 149.927 79.7688 151.867 79.4944C153.807 79.2199 154.107 76.3788 155.835 75.8426C157.564 75.3065 158.721 75.6676 160.188 75.3434C161.656 75.0192 163.895 71.9036 165.649 71.1307C167.403 70.3578 169.318 70.32 170.338 69.7093C171.358 69.0985 174.965 66.6057 176.271 65.5463C177.578 64.4869 180.625 60.4991 182.068 60.4113C183.511 60.3239 187.802 58.1424 190.389 56.2604C192.977 54.3784 196.149 49.2067 199.719 49.3429Z" fill="#F9E2A9"/>
<path d="M139.791 89.2334C140.075 88.7893 140.872 87.9728 141.789 88.259C142.707 88.5452 143.446 89.7762 143.701 90.3559C144.001 89.7556 144.883 88.5847 146.008 88.7031C147.133 88.8216 148.393 90.06 148.882 90.6644" stroke="#C5AC6B" stroke-width="2" stroke-linecap="round"/>
<path d="M167.641 74.9194C167.918 74.5719 168.676 73.952 169.488 74.2525C170.301 74.5531 170.908 75.6227 171.109 76.1199C171.409 75.6443 172.26 74.7372 173.268 74.9134C174.275 75.0896 175.35 76.2016 175.762 76.7355" stroke="#C5AC6B" stroke-width="2" stroke-linecap="round"/>
<path d="M177.733 69.8038C178.053 69.4951 178.885 68.9787 179.652 69.3822C180.419 69.7857 180.881 70.925 181.017 71.4442C181.376 71.0114 182.337 70.2224 183.313 70.5279C184.29 70.8334 185.211 72.0754 185.55 72.6582" stroke="#C5AC6B" stroke-width="2" stroke-linecap="round"/>
<path d="M153.039 93.9457C153.713 93.5428 154.543 93.1563 155.432 93.7237C156.004 94.0897 156.221 95.2286 156.172 95.6973" stroke="#C5AC6B" stroke-width="2" stroke-linecap="round"/>
<path d="M155.917 82.36C156.592 81.9571 157.422 81.5706 158.31 82.1381C158.883 82.504 159.1 83.6429 159.05 84.1116" stroke="#C5AC6B" stroke-width="2" stroke-linecap="round"/>
<path d="M163.614 90.2793C164.288 89.8764 165.118 89.4899 166.007 90.0574C166.579 90.4233 166.796 91.5622 166.747 92.031" stroke="#C5AC6B" stroke-width="2" stroke-linecap="round"/>
<path d="M166.236 83.3835C167.084 83.0434 168.133 82.7244 169.294 83.276C170.042 83.6318 170.365 84.6771 170.32 85.1019" stroke="#C5AC6B" stroke-width="2" stroke-linecap="round"/>
<path d="M178.398 80.3989C179.246 80.0588 180.295 79.7398 181.456 80.2914C182.204 80.6472 182.527 81.6925 182.482 82.1173" stroke="#C5AC6B" stroke-width="2" stroke-linecap="round"/>
<path d="M191.399 69.4459C192.247 69.1057 193.296 68.7868 194.457 69.3384C195.205 69.6942 195.528 70.7395 195.483 71.1643" stroke="#C5AC6B" stroke-width="2" stroke-linecap="round"/>
<path d="M187.822 62.9084C188.492 62.5495 189.318 62.207 190.21 62.7304C190.786 63.068 191.014 64.1033 190.969 64.5281" stroke="#C5AC6B" stroke-width="2" stroke-linecap="round"/>
<path d="M196.135 60.4662C196.805 60.1072 197.631 59.7647 198.524 60.2882C199.1 60.6258 199.327 61.6611 199.282 62.0858" stroke="#C5AC6B" stroke-width="2" stroke-linecap="round"/>
<path d="M176.964 4.15726C175.757 4.72422 176.732 9.62139 177.146 11.9887C177.473 13.8603 177.735 14.9082 178.076 16.6331C178.435 18.4478 178.938 21.0521 178.938 21.0521L184.549 23.2759C186.225 21.7762 189.748 18.5274 190.429 17.5302C191.279 16.2837 194.506 12.3369 193.728 10.6035C193.106 9.21674 190.431 10.2996 189.171 11.0143C188.907 9.61642 188.247 6.71304 187.721 6.28278C187.194 5.85253 186.288 6.96847 185.9 7.58023C185.237 6.22231 184.179 3.57261 183.167 3.48834C182.155 3.40407 180.988 5.22431 180.79 6.18857C180.018 5.27523 178.17 3.59029 176.964 4.15726Z" fill="#E36B5B"/>
<path d="M177.733 20.196C179.134 19.6623 181.255 20.0681 183.027 20.6122C183.027 20.6122 183.254 20.6698 183.359 20.7131C183.456 20.753 183.227 20.6621 183.4 20.7302C184.835 21.1978 185.972 21.7226 186.189 21.838L186.486 21.9958C186.846 22.2188 187.014 22.3317 187.219 22.7672C187.934 24.291 187.691 29.2907 187.564 30.3804C187.15 33.9339 189.308 36.0706 186.58 40.1434C183.577 44.6274 183.705 46.1795 183.397 47.5937C183.089 49.0081 183.735 52.7503 182.489 53.8785C181.244 55.0066 178.231 58.1896 177.471 59.1044C176.712 60.019 176.38 61.909 175.348 63.5247C174.316 65.1404 170.899 66.8729 170.353 68.275C169.808 69.6772 169.986 70.8776 169.191 72.5054C168.396 74.1331 165.549 73.9883 164.979 75.8656C164.41 77.7431 165.102 79.4332 163.288 80.8986C161.221 82.5684 159.302 83.0675 158.507 84.6953C157.712 86.3227 154.15 85.3067 152.347 88.0746C150.904 90.2888 148.035 90.2381 146.781 89.9359C146.204 90.3832 144.712 91.3559 143.364 91.6686C141.679 92.0593 141.501 90.8588 140.801 90.5848C140.179 90.3415 140.081 90.8757 138.921 90.6066C138.086 90.8621 136.307 91.3058 135.554 90.1449C134.611 88.6911 135.293 88.482 134.856 87.8688C134.42 87.2558 133.214 87.3758 133.18 85.6435C133.153 84.2574 133.729 82.5701 134.021 81.8998C133.422 80.7553 132.671 77.9809 134.461 76.0379C136.698 73.6091 137.729 74.5382 139.11 73.3681C140.491 72.1978 139.251 70.5857 141.174 68.7514C143.097 66.9171 143.83 67.6882 145.508 66.676C147.186 65.6638 146.349 62.9324 147.729 61.7621C149.11 60.5919 150.316 60.4713 151.539 59.5984C152.763 58.7254 153.604 54.9818 154.915 53.5839C156.226 52.186 157.973 51.4014 158.673 50.44C159.372 49.4787 161.715 45.7725 162.502 44.2863C163.289 42.8001 164.533 37.9373 165.826 37.2916C167.119 36.6463 170.213 32.9588 171.857 30.214C173.501 27.4692 174.395 21.4682 177.733 20.196Z" fill="#F9E2A9"/>
<path d="M138.209 80.3657C138.296 79.846 138.71 78.7827 139.666 78.6867C140.623 78.5907 141.785 79.434 142.247 79.8677C142.288 79.1978 142.641 77.7752 143.722 77.4437C144.804 77.1122 146.448 77.7585 147.134 78.1231" stroke="#C5AC6B" stroke-width="2" stroke-linecap="round"/>
<path d="M158.231 56.2903C158.35 55.862 158.804 54.995 159.67 54.9533C160.535 54.9115 161.512 55.6583 161.892 56.0369C161.982 55.482 162.41 54.3141 163.406 54.0817C164.402 53.8492 165.827 54.4515 166.414 54.7817" stroke="#C5AC6B" stroke-width="2" stroke-linecap="round"/>
<path d="M165.515 47.6314C165.688 47.2221 166.251 46.4214 167.115 46.4923C167.979 46.5633 168.85 47.4305 169.178 47.8552C169.339 47.3166 169.915 46.2141 170.933 46.1129C171.951 46.0117 173.285 46.7937 173.825 47.1974" stroke="#C5AC6B" stroke-width="2" stroke-linecap="round"/>
<path d="M152.244 79.515C152.707 78.8802 153.32 78.1994 154.359 78.3738C155.029 78.4863 155.674 79.4494 155.813 79.9" stroke="#C5AC6B" stroke-width="2" stroke-linecap="round"/>
<path d="M150.356 67.7271C150.819 67.0923 151.432 66.4115 152.471 66.5859C153.142 66.6984 153.787 67.6616 153.925 68.1122" stroke="#C5AC6B" stroke-width="2" stroke-linecap="round"/>
<path d="M160.539 72.0007C161.002 71.3659 161.615 70.6851 162.654 70.8595C163.325 70.972 163.97 71.9351 164.108 72.3858" stroke="#C5AC6B" stroke-width="2" stroke-linecap="round"/>
<path d="M160.252 64.6289C160.899 63.9838 161.74 63.2795 163.023 63.3327C163.851 63.367 164.558 64.2025 164.683 64.6109" stroke="#C5AC6B" stroke-width="2" stroke-linecap="round"/>
<path d="M170.274 57.1206C170.922 56.4755 171.762 55.7712 173.046 55.8244C173.874 55.8587 174.58 56.6942 174.705 57.1026" stroke="#C5AC6B" stroke-width="2" stroke-linecap="round"/>
<path d="M177.949 41.9516C178.596 41.3065 179.437 40.6022 180.72 40.6554C181.549 40.6897 182.255 41.5252 182.38 41.9336" stroke="#C5AC6B" stroke-width="2" stroke-linecap="round"/>
<path d="M172.098 37.3365C172.574 36.744 173.199 36.1055 174.226 36.2376C174.888 36.3228 175.503 37.1864 175.628 37.5947" stroke="#C5AC6B" stroke-width="2" stroke-linecap="round"/>
<path d="M178.791 31.8342C179.267 31.2417 179.893 30.6032 180.919 30.7353C181.581 30.8205 182.196 31.6841 182.321 32.0924" stroke="#C5AC6B" stroke-width="2" stroke-linecap="round"/>
<path d="M215.5 73.0078C203.392 120.755 158.516 157.008 107.001 157.008C55.1534 157.008 12.2794 121.224 0.5 73.0078C4.79804 74.8016 9.22873 76.4905 13.7832 78.0693C14.5475 79.048 15.4679 79.9327 16.5693 80.6953L17.1826 81.1045C20.381 83.1644 25.5155 85.4152 31.917 87.6514C38.7216 90.0283 46.882 92.3634 55.5068 94.4199C72.7716 98.5365 91.8112 101.518 105.5 101.518C122.654 101.518 145.204 98.4061 164.226 94.29C173.733 92.2327 182.333 89.9298 188.915 87.6504C192.208 86.5102 194.975 85.3824 197.092 84.3037C199.246 83.2058 200.597 82.2209 201.2 81.417L201.487 81.0254C202.21 80.0129 202.934 78.8119 203.603 77.4463C207.696 76.0387 211.667 74.557 215.5 73.0078Z" fill="#C5AC6B"/>
</svg>
