<svg width="216" height="126" viewBox="0 0 216 126" fill="none" xmlns="http://www.w3.org/2000/svg">
<path d="M30.6636 25.9571L33.668 22.4156L33.4935 28.7181L28.8461 30.4139L24.6552 33.0409L19.5731 29.3093L24.2131 29.1119L23.5385 24.7053L27.0024 26.6443L27.5994 22.7192L30.6636 25.9571Z" fill="#77A974"/>
<path d="M50.1465 53.1545C49.8194 61.6242 40.2016 66.3281 33.3151 61.3865C28.725 57.7286 26.1515 55.6778 21.5613 52.0199C15.0234 47.3284 16.4577 38.7645 23.0895 33.8215C27.7705 30.3325 29.9206 29.2809 35.4383 27.7818C43.2176 26.5527 51.0521 29.7072 50.7415 37.7482C50.5091 43.7647 50.3789 47.1379 50.1465 53.1545Z" fill="#E36B5B"/>
<ellipse cx="25.6868" cy="43.7261" rx="0.797812" ry="1.32969" transform="rotate(-1.0305 25.6868 43.7261)" fill="#F5F0E4"/>
<ellipse cx="44.3754" cy="49.151" rx="0.797812" ry="1.32969" transform="rotate(14.9076 44.3754 49.151)" fill="#F5F0E4"/>
<ellipse cx="35.9113" cy="56.4484" rx="0.797812" ry="1.32969" transform="rotate(-43.3753 35.9113 56.4484)" fill="#F5F0E4"/>
<ellipse cx="33.4488" cy="47.3901" rx="0.797812" ry="1.32969" transform="rotate(-26.0628 33.4488 47.3901)" fill="#F5F0E4"/>
<ellipse cx="37.8141" cy="41.2512" rx="0.797812" ry="1.32969" transform="rotate(-36.9067 37.8141 41.2512)" fill="#F5F0E4"/>
<ellipse cx="40.6911" cy="34.5953" rx="0.797812" ry="1.32969" transform="rotate(-47.2133 40.6911 34.5953)" fill="#F5F0E4"/>
<path d="M70.9716 9.46271L74.2833 9.65004L70.6179 12.2643L67.6496 10.3462L64.3478 9.08892L64.2853 4.58671L66.396 7.14547L68.6168 4.86356L69.0033 7.67333L71.4978 6.32265L70.9716 9.46271Z" fill="#77A974"/>
<path d="M63.8633 32.2783C58.8958 35.7393 52.0733 32.2841 51.9238 26.2317C52.0316 22.0407 52.092 19.6909 52.1998 15.4999C52.0579 9.75379 57.5558 6.88313 63.2286 8.5337C67.2327 9.69876 68.7579 10.4712 71.9884 12.9699C76.0389 16.8738 77.6152 22.6969 72.8991 25.9827C69.3704 28.4413 67.392 29.8197 63.8633 32.2783Z" fill="#E36B5B"/>
<ellipse cx="58.7028" cy="14.2791" rx="0.569866" ry="0.949777" transform="rotate(51.8915 58.7028 14.2791)" fill="#F5F0E4"/>
<ellipse cx="63.6595" cy="27.2653" rx="0.569866" ry="0.949777" transform="rotate(67.8296 63.6595 27.2653)" fill="#F5F0E4"/>
<ellipse cx="55.8556" cy="25.5845" rx="0.569866" ry="0.949777" transform="rotate(9.54674 55.8556 25.5845)" fill="#F5F0E4"/>
<ellipse cx="59.9575" cy="20.2803" rx="0.569866" ry="0.949777" transform="rotate(26.8592 59.9575 20.2803)" fill="#F5F0E4"/>
<ellipse cx="65.3358" cy="20.1243" rx="0.569866" ry="0.949777" transform="rotate(16.0153 65.3358 20.1243)" fill="#F5F0E4"/>
<ellipse cx="70.3676" cy="18.8975" rx="0.569866" ry="0.949777" transform="rotate(5.70868 70.3676 18.8975)" fill="#F5F0E4"/>
<path d="M89.4916 37.5509L94.7528 38.2509L88.5861 41.9773L84.0843 38.5562L78.9681 36.149L79.4171 28.9578L82.4736 33.2981L86.2935 29.9263L86.5693 34.4554L90.7116 32.6036L89.4916 37.5509Z" fill="#77A974"/>
<path d="M75.3784 73.0853C67.0328 78.0033 56.5683 71.662 57.0651 61.9879C57.7464 55.3147 58.1283 51.5733 58.8096 44.9001C59.2813 35.7157 68.4014 31.804 77.2511 35.1266C83.4977 37.4719 85.8371 38.8894 90.6872 43.2685C96.675 49.9889 98.4821 59.4704 90.559 64.1395C84.6306 67.633 81.3068 69.5917 75.3784 73.0853Z" fill="#E36B5B"/>
<ellipse cx="69.3327" cy="43.7429" rx="0.911785" ry="1.51964" transform="rotate(56.2471 69.3327 43.7429)" fill="#F5F0E4"/>
<ellipse cx="75.6623" cy="65.0631" rx="0.911785" ry="1.51964" transform="rotate(72.1852 75.6623 65.0631)" fill="#F5F0E4"/>
<ellipse cx="63.4167" cy="61.4332" rx="0.911786" ry="1.51964" transform="rotate(13.9023 63.4167 61.4332)" fill="#F5F0E4"/>
<ellipse cx="70.605" cy="53.4696" rx="0.911785" ry="1.51964" transform="rotate(31.2148 70.605 53.4696)" fill="#F5F0E4"/>
<ellipse cx="79.2042" cy="53.8741" rx="0.911786" ry="1.51964" transform="rotate(20.3709 79.2042 53.8741)" fill="#F5F0E4"/>
<ellipse cx="87.3812" cy="52.5283" rx="0.911786" ry="1.51964" transform="rotate(10.0643 87.3812 52.5283)" fill="#F5F0E4"/>
<path d="M215.5 42.0078C203.392 89.7548 158.516 126.008 107.001 126.008C55.1534 126.008 12.2794 90.2242 0.5 42.0078C4.79804 43.8016 9.22873 45.4905 13.7832 47.0693C14.5475 48.048 15.4679 48.9327 16.5693 49.6953L17.1826 50.1045C20.381 52.1644 25.5155 54.4152 31.917 56.6514C38.7216 59.0283 46.882 61.3634 55.5068 63.4199C72.7716 67.5365 91.8112 70.5176 105.5 70.5176C122.654 70.5176 145.204 67.4061 164.226 63.29C173.733 61.2327 182.333 58.9298 188.915 56.6504C192.208 55.5102 194.975 54.3824 197.092 53.3037C199.246 52.2058 200.597 51.2209 201.2 50.417L201.487 50.0254C202.21 49.0129 202.934 47.8119 203.603 46.4463C207.696 45.0387 211.667 43.557 215.5 42.0078Z" fill="#C5AC6B"/>
</svg>
