<svg width="108" height="84" viewBox="0 0 108 84" fill="none" xmlns="http://www.w3.org/2000/svg">
<path d="M32.6892 21.497C45.2202 15.6996 60.0783 21.1585 65.8757 33.6894C69.4824 41.4852 68.7314 50.1809 64.6326 57.0361C59.8688 57.3723 57.514 62.1958 54.2429 62.2773C48.7513 62.4136 46.3867 56.5301 40.656 57.0761C34.4406 57.6684 37.9816 63.2461 34.7468 64.5497C33.3035 65.1313 29.9887 64.336 27.0271 63.2665C24.3317 60.9867 22.0768 58.0986 20.4968 54.6835C14.6997 42.1526 20.1583 27.2944 32.6892 21.497Z" fill="#C5AC6B"/>
<ellipse cx="29.4728" cy="30.8116" rx="1.03872" ry="0.47494" transform="rotate(-36.8894 29.4728 30.8116)" fill="#505166"/>
<ellipse cx="32.8548" cy="30.7489" rx="1.03872" ry="0.47494" transform="rotate(-19.9606 32.8548 30.7489)" fill="#505166"/>
<ellipse cx="32.7364" cy="27.9323" rx="1.03872" ry="0.47494" transform="rotate(-19.9606 32.7364 27.9323)" fill="#505166"/>
<ellipse cx="31.6543" cy="33.2763" rx="1.03872" ry="0.47494" transform="rotate(-19.9606 31.6543 33.2763)" fill="#505166"/>
<ellipse cx="36.2981" cy="30.5093" rx="1.03872" ry="0.47494" transform="rotate(-34.4401 36.2981 30.5093)" fill="#505166"/>
<ellipse cx="35.739" cy="28.0888" rx="1.03872" ry="0.47494" transform="rotate(-20.964 35.739 28.0888)" fill="#505166"/>
<ellipse cx="34.6812" cy="24.6221" rx="1.03872" ry="0.47494" transform="rotate(-7.12662 34.6812 24.6221)" fill="#505166"/>
<ellipse cx="37.6959" cy="25.7378" rx="1.03872" ry="0.47494" transform="rotate(-32.9468 37.6959 25.7378)" fill="#505166"/>
<ellipse cx="39.6478" cy="27.6673" rx="1.03872" ry="0.47494" transform="rotate(-32.9468 39.6478 27.6673)" fill="#505166"/>
<ellipse cx="42.0854" cy="25.3329" rx="1.03872" ry="0.47494" transform="rotate(-20.0416 42.0854 25.3329)" fill="#505166"/>
<ellipse cx="42.36" cy="28.6321" rx="1.03872" ry="0.47494" transform="rotate(-6.30987 42.36 28.6321)" fill="#505166"/>
<path d="M61.3337 43.1177C66.2022 34.7685 76.9171 31.9466 85.2663 36.8149C93.6154 41.6833 96.4372 52.3984 91.5691 60.7476C90.1352 63.2066 88.1932 65.1855 85.9548 66.6304C84.5963 65.0683 84.4281 62.8921 81.4548 62.2827C78.8633 61.7516 76.8667 62.8588 74.5818 62.8003C70.9255 62.7064 68.7819 57.1044 65.3542 57.0161C63.3223 56.964 61.7135 57.726 60.3064 58.6851C58.2665 53.7974 58.4602 48.0456 61.3337 43.1177Z" fill="#C5AC6B"/>
<ellipse cx="78.6315" cy="38.702" rx="0.727106" ry="0.332458" transform="rotate(18.1847 78.6315 38.702)" fill="#505166"/>
<ellipse cx="80.0229" cy="40.6179" rx="0.727106" ry="0.332458" transform="rotate(35.1135 80.0229 40.6179)" fill="#505166"/>
<ellipse cx="81.592" cy="39.4211" rx="0.727106" ry="0.332458" transform="rotate(35.1135 81.592 39.4211)" fill="#505166"/>
<ellipse cx="78.0915" cy="40.9417" rx="0.727106" ry="0.332458" transform="rotate(35.1135 78.0915 40.9417)" fill="#505166"/>
<ellipse cx="81.5404" cy="42.498" rx="0.727106" ry="0.332458" transform="rotate(20.634 81.5404 42.498)" fill="#505166"/>
<ellipse cx="82.7056" cy="41.2071" rx="0.727106" ry="0.332458" transform="rotate(34.1101 82.7056 41.2071)" fill="#505166"/>
<ellipse cx="84.2712" cy="39.2106" rx="0.727106" ry="0.332458" transform="rotate(47.9475 84.2712 39.2106)" fill="#505166"/>
<ellipse cx="84.8391" cy="41.3881" rx="0.727106" ry="0.332458" transform="rotate(22.1273 84.8391 41.3881)" fill="#505166"/>
<ellipse cx="84.5139" cy="43.2816" rx="0.727106" ry="0.332458" transform="rotate(22.1273 84.5139 43.2816)" fill="#505166"/>
<ellipse cx="86.8306" cy="43.7451" rx="0.727106" ry="0.332458" transform="rotate(35.0325 86.8306 43.7451)" fill="#505166"/>
<ellipse cx="85.0471" cy="45.2249" rx="0.727106" ry="0.332458" transform="rotate(48.7642 85.0471 45.2249)" fill="#505166"/>
</svg>
