<svg width="216" height="119" viewBox="0 0 216 119" fill="none" xmlns="http://www.w3.org/2000/svg">
<path d="M189.068 11.705C191.704 10.0665 195.063 12.2089 194.689 15.2897L190.151 52.6671C189.823 55.368 188.358 55.4783 184.494 55.3381C169.762 54.8034 163.913 50.7241 157.056 37.8405C155.698 35.2869 154.782 33.0213 157.092 31.5848L189.068 11.705Z" fill="#E36B5B"/>
<path d="M157.056 37.8405C163.913 50.7241 169.762 54.8036 184.494 55.3382C188.358 55.4785 189.823 55.3681 190.151 52.6674L190.874 46.7101C185.146 46.379 177.973 47.465 172.519 43.9869C168.363 41.3369 163.892 34.2811 161.082 29.1042L157.092 31.5848C154.782 33.0213 155.698 35.2871 157.056 37.8405Z" fill="#F5F0E4"/>
<path d="M157.057 37.8403C163.913 50.7239 169.762 54.8033 184.494 55.338C188.359 55.4782 189.824 55.368 190.152 52.6671L190.448 50.2196C184.781 49.8784 176.289 50.1052 170.697 46.8437C165.381 43.149 161.263 35.8662 158.609 30.6417L157.093 31.5849C154.782 33.0214 155.698 35.2868 157.057 37.8403Z" fill="#77A974"/>
<ellipse cx="0.616058" cy="0.924091" rx="0.616058" ry="0.924091" transform="matrix(0.843141 0.537692 0.537692 -0.843141 173.735 32.3411)" fill="#323232"/>
<ellipse cx="0.616058" cy="0.924091" rx="0.616058" ry="0.924091" transform="matrix(0.843141 0.537692 0.537692 -0.843141 187.113 26.2587)" fill="#323232"/>
<ellipse cx="0.616058" cy="0.924091" rx="0.616058" ry="0.924091" transform="matrix(0.843141 0.537692 0.537692 -0.843141 181.857 36.7903)" fill="#323232"/>
<ellipse cx="0.616058" cy="0.924091" rx="0.616058" ry="0.924091" transform="matrix(0.843141 0.537692 0.537692 -0.843141 181.346 28.4267)" fill="#323232"/>
<ellipse cx="0.616058" cy="0.924091" rx="0.616058" ry="0.924091" transform="matrix(0.843141 0.537692 0.537692 -0.843141 185.276 19.9728)" fill="#323232"/>
<path d="M136.739 10.1438C137.447 6.32961 142.255 5.03271 144.785 7.97385L175.474 43.6572C177.691 46.2357 176.559 47.6813 173.174 51.131C160.267 64.2837 151.572 66.2475 133.899 61.7229C130.396 60.8261 127.533 59.7628 128.153 56.4189L136.739 10.1438Z" fill="#E36B5B"/>
<path d="M133.899 61.7229C151.572 66.2475 160.267 64.2837 173.174 51.131C176.559 47.6813 177.692 46.2355 175.474 43.6571L170.583 37.9702C165.45 42.9804 160.409 50.5189 152.603 52.6243C146.654 54.2284 136.372 52.4122 129.224 50.6453L128.153 56.4191C127.533 59.7627 130.397 60.8262 133.899 61.7229Z" fill="#F5F0E4"/>
<path d="M133.899 61.7225C151.572 66.2471 160.267 64.2833 173.174 51.1306C176.559 47.6809 177.692 46.2353 175.474 43.6568L173.464 41.3209C168.374 46.2662 161.429 54.2982 153.705 56.7136C145.815 58.509 135.62 56.1757 128.56 54.2237L128.154 56.4185C127.533 59.7623 130.396 60.8258 133.899 61.7225Z" fill="#77A974"/>
<ellipse cx="0.770076" cy="1.15511" rx="0.770076" ry="1.15511" transform="matrix(0.965505 -0.260384 -0.260384 -0.965505 142.874 41.689)" fill="#323232"/>
<ellipse cx="0.770076" cy="1.15511" rx="0.770076" ry="1.15511" transform="matrix(0.965505 -0.260384 -0.260384 -0.965505 148.529 24.212)" fill="#323232"/>
<ellipse cx="0.770076" cy="1.15511" rx="0.770076" ry="1.15511" transform="matrix(0.965505 -0.260384 -0.260384 -0.965505 153.826 37.9377)" fill="#323232"/>
<ellipse cx="0.770076" cy="1.15511" rx="0.770076" ry="1.15511" transform="matrix(0.965505 -0.260384 -0.260384 -0.965505 145.672 31.3632)" fill="#323232"/>
<ellipse cx="0.770076" cy="1.15511" rx="0.770076" ry="1.15511" transform="matrix(0.965505 -0.260384 -0.260384 -0.965505 141.177 20.6116)" fill="#323232"/>
<path d="M215.5 35.0079C203.392 82.7549 158.516 119.008 107.001 119.008C55.1534 119.008 12.2794 83.2243 0.5 35.0079C4.79804 36.8016 9.22873 38.4906 13.7832 40.0694C14.5475 41.0481 15.4679 41.9328 16.5693 42.6954L17.1826 43.1046C20.381 45.1644 25.5155 47.4153 31.917 49.6514C38.7216 52.0284 46.882 54.3635 55.5068 56.42C72.7716 60.5366 91.8112 63.5176 105.5 63.5176C122.654 63.5176 145.204 60.4062 164.226 56.2901C173.733 54.2328 182.333 51.9299 188.915 49.6505C192.208 48.5102 194.975 47.3825 197.092 46.3038C199.246 45.2059 200.597 44.221 201.2 43.4171L201.487 43.0255C202.21 42.013 202.934 40.8119 203.603 39.4464C207.696 38.0388 211.667 36.557 215.5 35.0079Z" fill="#C5AC6B"/>
</svg>
