<svg width="149" height="87" viewBox="0 0 149 87" fill="none" xmlns="http://www.w3.org/2000/svg">
<path d="M31 25.0082C35.0098 22.0078 47.9509 -0.491787 68.5 0.00820755C89.049 0.508447 100.495 18.0082 102.5 19.0082C104.505 20.0079 110.946 19.9076 114 23.5082C119.513 30.008 119.493 37.5082 122.5 40.0082C124.023 41.2743 130.132 45.2334 136 49.8721C141.719 54.3931 146.939 60.3262 148 63.5082C148.5 65.0082 149 66.5082 148.5 67.0082C141.345 63.4914 132.162 60.4486 128.549 62.5082C121.532 66.5083 129.608 82.3391 116.019 84.5082C103.489 86.5081 97.9751 69.7083 85.9463 70.5082C78.4283 71.0082 73.4162 86.508 61.8887 86.5082C54.3706 86.5082 49.3581 70.5082 41.3389 70.5082C36.3269 70.5083 32.0132 73.8485 26.3027 72.5082C17.7824 70.5082 19.5168 60.5082 12.5 57.0082C10.5098 56.0158 4.99495 54.4737 0.5 55.5082C5.47188 51.1443 9.13385 50.5453 12.5 45.5082C15.507 41.0082 16.4881 33.0081 21.5 29.0082C26.5118 25.0085 26.9904 28.0082 31 25.0082Z" fill="#F5F0E4"/>
</svg>
